<svg xmlns="http://www.w3.org/2000/svg" width="350.161" height="350.162" viewBox="0 0 350.161 350.162">
  <g id="g10" transform="translate(0 3333.32)">
    <g id="g12" transform="translate(0 -3333.32)">
      <g id="g14">
        <path id="path16" d="M350.161-2983.159H0V-3333.32H350.161v350.162" transform="translate(0 3333.32)" fill="#fff"/>
      </g>
      <g id="g18" transform="translate(46.922 46.921)">
        <path id="path20" d="M702.983-2758.5a128.16,128.16,0,0,1-128.159,128.159A128.159,128.159,0,0,1,446.665-2758.5a128.16,128.16,0,0,1,128.159-128.159A128.16,128.16,0,0,1,702.983-2758.5" transform="translate(-446.665 2886.658)" fill="#f2e6dc"/>
      </g>
      <g id="g22" transform="translate(211.692 226.969)">
        <path id="path24" d="M2050.231-1156.308c-.206,0-.412,0-.619.01a18.656,18.656,0,0,0-18.013,18.015,18.476,18.476,0,0,0,5.447,13.786,18.5,18.5,0,0,0,13.786,5.448,18.657,18.657,0,0,0,18.015-18.015,18.476,18.476,0,0,0-5.447-13.787A18.465,18.465,0,0,0,2050.231-1156.308Zm-.019,37.886a19.065,19.065,0,0,1-13.6-5.638,19.08,19.08,0,0,1-5.629-14.243,19.273,19.273,0,0,1,18.611-18.612,19.084,19.084,0,0,1,14.243,5.628,19.083,19.083,0,0,1,5.628,14.243,19.272,19.272,0,0,1-18.611,18.612C2050.641-1118.425,2050.427-1118.422,2050.212-1118.422Zm-5.468,15.175h10.96v-3.112a.308.308,0,0,1,.252-.3,31.286,31.286,0,0,0,4.808-1.286.31.31,0,0,1,.372.137l1.554,2.693,9.492-5.481-1.56-2.7a.309.309,0,0,1,.067-.389,31.721,31.721,0,0,0,3.517-3.517.31.31,0,0,1,.391-.067l2.7,1.559,5.478-9.492-2.693-1.555a.308.308,0,0,1-.135-.37,31.377,31.377,0,0,0,1.286-4.808.307.307,0,0,1,.3-.254h3.113v-10.96h-3.113a.307.307,0,0,1-.3-.254,31.392,31.392,0,0,0-1.286-4.808.308.308,0,0,1,.135-.37l2.693-1.555-5.478-9.492-2.7,1.559a.31.31,0,0,1-.391-.067,31.711,31.711,0,0,0-3.517-3.517.309.309,0,0,1-.067-.39l1.56-2.7-9.492-5.481-1.554,2.693a.312.312,0,0,1-.372.137,31.286,31.286,0,0,0-4.808-1.286.308.308,0,0,1-.252-.3v-3.112h-10.96v3.112a.31.31,0,0,1-.254.3,31.358,31.358,0,0,0-4.809,1.286.309.309,0,0,1-.37-.137l-1.556-2.693-9.492,5.481,1.559,2.7a.31.31,0,0,1-.066.39,31.734,31.734,0,0,0-3.518,3.517.308.308,0,0,1-.389.067l-2.7-1.559-5.48,9.492,2.693,1.555a.309.309,0,0,1,.137.37,31.463,31.463,0,0,0-1.286,4.808.308.308,0,0,1-.3.254H2015.8v10.96h3.113a.308.308,0,0,1,.3.254,31.448,31.448,0,0,0,1.286,4.808.309.309,0,0,1-.137.37l-2.693,1.555,5.48,9.492,2.7-1.559a.31.31,0,0,1,.389.067,31.733,31.733,0,0,0,3.518,3.517.31.31,0,0,1,.066.389l-1.559,2.7,9.492,5.481,1.556-2.693a.307.307,0,0,1,.37-.137,31.372,31.372,0,0,0,4.809,1.286.309.309,0,0,1,.254.3Zm11.268.618h-11.579a.308.308,0,0,1-.308-.308v-3.166a31.927,31.927,0,0,1-4.408-1.179l-1.58,2.74a.309.309,0,0,1-.188.144.311.311,0,0,1-.233-.031l-10.028-5.789a.308.308,0,0,1-.112-.423l1.585-2.745a32.307,32.307,0,0,1-3.222-3.223l-2.747,1.586a.325.325,0,0,1-.235.031.31.31,0,0,1-.187-.144l-5.789-10.027a.308.308,0,0,1,.114-.422l2.738-1.581a32.252,32.252,0,0,1-1.179-4.408h-3.165a.307.307,0,0,1-.308-.308v-11.579a.307.307,0,0,1,.308-.308h3.165a32.313,32.313,0,0,1,1.179-4.408l-2.738-1.581a.3.3,0,0,1-.145-.188.317.317,0,0,1,.031-.234l5.789-10.027a.311.311,0,0,1,.187-.144.325.325,0,0,1,.235.031l2.747,1.585a32.447,32.447,0,0,1,3.222-3.223l-1.585-2.745a.308.308,0,0,1,.112-.423l10.028-5.789a.31.31,0,0,1,.233-.031.309.309,0,0,1,.188.144l1.58,2.74a31.944,31.944,0,0,1,4.408-1.179v-3.165a.309.309,0,0,1,.308-.308h11.579a.309.309,0,0,1,.31.308v3.165a31.91,31.91,0,0,1,4.406,1.179l1.582-2.74a.308.308,0,0,1,.422-.113l10.028,5.789a.309.309,0,0,1,.111.423l-1.585,2.745a32.463,32.463,0,0,1,3.224,3.223l2.747-1.585a.308.308,0,0,1,.233-.031.3.3,0,0,1,.187.144l5.79,10.027a.3.3,0,0,1,.031.234.3.3,0,0,1-.143.188l-2.74,1.581a32.023,32.023,0,0,1,1.181,4.408h3.163a.308.308,0,0,1,.31.308v11.579a.308.308,0,0,1-.31.308h-3.163a31.962,31.962,0,0,1-1.181,4.408l2.74,1.581a.309.309,0,0,1,.112.422l-5.79,10.027a.309.309,0,0,1-.187.144.321.321,0,0,1-.233-.031l-2.747-1.586a32.5,32.5,0,0,1-3.224,3.223l1.585,2.745a.309.309,0,0,1-.111.423l-10.028,5.789a.309.309,0,0,1-.422-.114l-1.582-2.74a31.91,31.91,0,0,1-4.406,1.179v3.166a.308.308,0,0,1-.31.308" transform="translate(-2015.18 1172.717)" fill="#d3bba3"/>
      </g>
      <g id="g26" transform="translate(221.1 236.658)">
        <path id="path28" d="M2130.369-1029.492a25.666,25.666,0,0,1-25.636-25.638,25.629,25.629,0,0,1,6.272-16.8,25.639,25.639,0,0,1,15.526-8.55.31.31,0,0,1,.352.259.309.309,0,0,1-.26.352,25.159,25.159,0,0,0-21.271,24.74,25.048,25.048,0,0,0,25.018,25.02,25.016,25.016,0,0,0,24.219-18.714.306.306,0,0,1,.375-.221.308.308,0,0,1,.222.375,25.63,25.63,0,0,1-24.815,19.178" transform="translate(-2104.732 1080.483)" fill="#f2e6dc"/>
      </g>
      <path id="path30" d="M1514.856-2052.719a.307.307,0,0,1-.3-.262,82.053,82.053,0,0,0-13.3-33.718,81.014,81.014,0,0,0-21.08-21.074.31.31,0,0,1-.08-.43.31.31,0,0,1,.43-.08,81.671,81.671,0,0,1,21.24,21.234,82.666,82.666,0,0,1,13.4,33.974.309.309,0,0,1-.258.353l-.048,0" transform="translate(-1324.564 2237.02)" fill="#776e42"/>
      <path id="path32" d="M1847.215-2018.919a.306.306,0,0,1-.1-.015.307.307,0,0,1-.192-.392,77.591,77.591,0,0,0,4.035-28.643,75.623,75.623,0,0,0-4.786-23.185.309.309,0,0,1,.179-.4.31.31,0,0,1,.4.179,76.247,76.247,0,0,1,4.824,23.374,78.19,78.19,0,0,1-4.068,28.872.309.309,0,0,1-.293.208" transform="translate(-1652.216 2204.117)" fill="#776e42"/>
      <path id="path34" d="M1666.663-1668.513h38.088v-27.936h-38.088v27.936" transform="translate(-1491.582 1868.401)" fill="#d3bba3"/>
      <g id="g36" transform="translate(123.161 103.214)">
        <path id="path38" d="M1187.8-2311.957l23.34-4.236-31.038-9.333a112.2,112.2,0,0,1-7.684-25.2,94.863,94.863,0,0,1,13.5.485l14.152,23.786-1.3-21.678a72.876,72.876,0,0,1,20.007,7.642c.9.523,1.765,1.066,2.6,1.627l2.93,32.786,8.531-20.773c5.5,9.464,5.091,19.775.2,25.75-7.507,9.163-26.8,9.72-41.438-6.206a53.009,53.009,0,0,1-3.8-4.653" transform="translate(-1172.415 2350.785)" fill="#8b865c"/>
      </g>
      <g id="g40" transform="translate(136.662 103.76)">
        <path id="path42" d="M1300.938-2345.586a102.812,102.812,0,0,1,12.853,2.107l1.3,21.679-14.152-23.786" transform="translate(-1300.938 2345.586)" fill="#776e42"/>
      </g>
      <g id="g44" transform="translate(172.118 115.139)">
        <path id="path46" d="M1638.462-2237.267a37.1,37.1,0,0,1,11.461,12.012l-8.531,20.773-2.93-32.785" transform="translate(-1638.462 2237.267)" fill="#776e42"/>
      </g>
      <path id="path48" d="M1253.261-2096.772a74.744,74.744,0,0,1-7.7-13.569l31.038,9.334-23.34,4.236" transform="translate(-1114.719 2238.814)" fill="#776e42"/>
      <path id="path50" d="M1507.749-2075.758a.309.309,0,0,1-.279-.175,80.9,80.9,0,0,0-6.216-10.765,81.014,81.014,0,0,0-21.08-21.074.31.31,0,0,1-.08-.43.31.31,0,0,1,.43-.08,81.671,81.671,0,0,1,21.24,21.234,81.66,81.66,0,0,1,6.264,10.849.31.31,0,0,1-.146.412.322.322,0,0,1-.133.029" transform="translate(-1324.564 2237.02)" fill="#776e42"/>
      <g id="g52" transform="translate(179.867 101.696)">
        <path id="path54" d="M1712.225-2332.255l14.823,6.756-14.541-19.257a104.373,104.373,0,0,1,4.306-20.476,63.336,63.336,0,0,1,7.559,5.923l-.116,22.184,6.744-15.416a58.167,58.167,0,0,1,8.812,13.527q.5,1.1.924,2.192l-9.646,23.716,12.057-10.725c-.125,8.771-3.917,15.681-8.781,17.755-7.462,3.181-18.7-4.422-21.574-21.414-.267-1.569-.45-3.163-.567-4.765" transform="translate(-1712.225 2365.232)" fill="#776e42"/>
      </g>
      <g id="g56" transform="translate(191.899 107.619)">
        <path id="path58" d="M1826.875-2308.857a73.868,73.868,0,0,1,6.628,6.767l-6.744,15.417.116-22.185" transform="translate(-1826.759 2308.857)" fill="#8b865c"/>
      </g>
      <path id="path60" d="M1901.455-2094.781a34.787,34.787,0,0,1,2.412,12.99l-12.058,10.725,9.646-23.714" transform="translate(-1693.076 2224.888)" fill="#8b865c"/>
      <path id="path62" d="M1710.908-2157.814a71.784,71.784,0,0,1,.281-12.5l14.54,19.256-14.822-6.755" transform="translate(-1531.04 2292.487)" fill="#8b865c"/>
      <path id="path64" d="M1851.181-2038.7h-.021a.31.31,0,0,1-.289-.329,77.734,77.734,0,0,0,.087-8.942,75.627,75.627,0,0,0-4.786-23.185.309.309,0,0,1,.179-.4.31.31,0,0,1,.4.179,76.245,76.245,0,0,1,4.824,23.374,78.349,78.349,0,0,1-.087,9.013.308.308,0,0,1-.307.287" transform="translate(-1652.217 2204.118)" fill="#776e42"/>
      <path id="path66" d="M580.669-1658.7a20.277,20.277,0,0,1-19.531,19.532,20.2,20.2,0,0,1-20.854-20.854,20.276,20.276,0,0,1,19.531-19.532A20.2,20.2,0,0,1,580.669-1658.7Zm16.853-6.835h-3.649a33.746,33.746,0,0,0-1.385-5.18l3.158-1.822-6.174-10.7-3.165,1.828a34.129,34.129,0,0,0-3.788-3.787l1.827-3.166-10.694-6.174-1.823,3.157a33.63,33.63,0,0,0-5.178-1.384v-3.65H554.3v3.65a33.631,33.631,0,0,0-5.179,1.384l-1.823-3.157-10.694,6.174,1.827,3.166a34.128,34.128,0,0,0-3.788,3.787l-3.165-1.828-6.174,10.7,3.158,1.822a33.746,33.746,0,0,0-1.385,5.18h-3.649v12.348h3.649a33.689,33.689,0,0,0,1.385,5.178l-3.158,1.824,6.174,10.694,3.165-1.827a34.228,34.228,0,0,0,3.788,3.787l-1.827,3.166,10.694,6.174h0l1.823-3.158a33.66,33.66,0,0,0,5.179,1.385v3.649H566.65v-3.649a33.659,33.659,0,0,0,5.178-1.385l1.823,3.158h0l10.694-6.174-1.827-3.166a34.235,34.235,0,0,0,3.788-3.787l3.165,1.827,6.174-10.694-3.158-1.824a33.689,33.689,0,0,0,1.385-5.178h3.649v-12.348" transform="translate(-468.444 1868.365)" fill="#fff"/>
      <g id="g68" transform="translate(195.192 61.945)">
        <path id="path70" d="M1956.707-2557.621h-98.6v-186.018h98.6v186.018" transform="translate(-1858.106 2743.639)" fill="#fff"/>
      </g>
      <g id="g72" transform="translate(187.375 48.883)">
        <path id="path74" d="M1794.475-2867.372a10.174,10.174,0,0,0-10.162,10.161v188.816a10.174,10.174,0,0,0,10.162,10.161h92a10.172,10.172,0,0,0,10.16-10.161v-188.816a10.172,10.172,0,0,0-10.16-10.161Zm92,209.755h-92a10.791,10.791,0,0,1-10.78-10.778v-188.816a10.791,10.791,0,0,1,10.78-10.778h92a10.791,10.791,0,0,1,10.779,10.778v188.816a10.791,10.791,0,0,1-10.779,10.778" transform="translate(-1783.695 2867.989)" fill="#363e44"/>
      </g>
      <g id="g76" transform="translate(230.598 55.741)">
        <path id="path78" d="M2222.632-2802.084h-27.172a.31.31,0,0,1-.309-.309.309.309,0,0,1,.309-.309h27.172a.308.308,0,0,1,.309.309.309.309,0,0,1-.309.309" transform="translate(-2195.152 2802.702)" fill="#363e44"/>
      </g>
      <g id="g80" transform="translate(219.062 80.106)">
        <path id="path82" d="M2110.67-2570.147a24.749,24.749,0,0,0-24.723,24.721,24.75,24.75,0,0,0,24.723,24.721,24.749,24.749,0,0,0,24.719-24.721A24.747,24.747,0,0,0,2110.67-2570.147Zm0,50.06a25.368,25.368,0,0,1-25.339-25.339,25.368,25.368,0,0,1,25.339-25.339,25.367,25.367,0,0,1,25.337,25.339,25.366,25.366,0,0,1-25.337,25.339" transform="translate(-2085.332 2570.765)" fill="#d3bba3"/>
      </g>
      <g id="g84" transform="translate(231.27 105.603)">
        <path id="path86" d="M2214.674-2328.045c-7.961,0-13.129,3.048-13.129,7.933a14.823,14.823,0,0,0,13.129,7.933,14.826,14.826,0,0,0,13.128-7.933c0-4.629-5.681-7.933-13.128-7.933" transform="translate(-2201.545 2328.045)" fill="#d3bba3"/>
      </g>
      <g id="g88" transform="translate(237.627 88.261)">
        <path id="path90" d="M2275.609-2486.362a6.77,6.77,0,0,1-6.771,6.769,6.77,6.77,0,0,1-6.771-6.769,6.772,6.772,0,0,1,6.771-6.771,6.772,6.772,0,0,1,6.771,6.771" transform="translate(-2262.067 2493.133)" fill="#d3bba3"/>
      </g>
      <g id="g92" transform="translate(207.204 146.631)">
        <path id="path94" d="M2038.039-1920.821l-57.222.178a8.334,8.334,0,0,1-8.361-8.309h0a8.336,8.336,0,0,1,8.309-8.361l57.222-.174a8.332,8.332,0,0,1,8.361,8.307h0a8.334,8.334,0,0,1-8.309,8.359" transform="translate(-1972.456 1937.488)" fill="#d87355"/>
      </g>
      <g id="g96" transform="translate(207.204 179.482)">
        <path id="path98" d="M2038.039-1608.095l-57.222.175a8.333,8.333,0,0,1-8.361-8.309h0a8.334,8.334,0,0,1,8.309-8.359l57.222-.177a8.334,8.334,0,0,1,8.361,8.309h0a8.336,8.336,0,0,1-8.309,8.36" transform="translate(-1972.456 1624.764)" fill="#d87355"/>
      </g>
      <path id="path100" d="M2089.271-1875.737a2.4,2.4,0,0,0-2.405-2.4,2.4,2.4,0,0,0-2.4,2.4,2.4,2.4,0,0,0,2.4,2.405,2.406,2.406,0,0,0,2.405-2.405" transform="translate(-1865.491 2031.007)" fill="#fff"/>
      <g id="g102" transform="translate(228.116 152.864)">
        <path id="path104" d="M2176.338-1875.743a2.406,2.406,0,0,0-2.405-2.405,2.406,2.406,0,0,0-2.405,2.405,2.406,2.406,0,0,0,2.405,2.405,2.406,2.406,0,0,0,2.405-2.405" transform="translate(-2171.528 1878.148)" fill="#fff"/>
      </g>
      <g id="g106" transform="translate(236.968 152.865)">
        <path id="path108" d="M2260.595-1875.737a2.4,2.4,0,0,0-2.4-2.406,2.406,2.406,0,0,0-2.406,2.406,2.406,2.406,0,0,0,2.406,2.4,2.4,2.4,0,0,0,2.4-2.4" transform="translate(-2255.785 1878.143)" fill="#fff"/>
      </g>
      <g id="g110" transform="translate(246.115 152.866)">
        <path id="path112" d="M2347.668-1875.725a2.4,2.4,0,0,0-2.4-2.4,2.4,2.4,0,0,0-2.4,2.4,2.4,2.4,0,0,0,2.4,2.4,2.4,2.4,0,0,0,2.4-2.4" transform="translate(-2342.86 1878.13)" fill="#fff"/>
      </g>
      <g id="g114" transform="translate(255.319 152.864)">
        <path id="path116" d="M2435.29-1875.746a2.4,2.4,0,0,0-2.405-2.4,2.4,2.4,0,0,0-2.4,2.4,2.406,2.406,0,0,0,2.4,2.405,2.4,2.4,0,0,0,2.405-2.405" transform="translate(-2430.48 1878.151)" fill="#fff"/>
      </g>
      <g id="g118" transform="translate(264.464 152.864)">
        <path id="path120" d="M2522.348-1875.746a2.4,2.4,0,0,0-2.405-2.405,2.406,2.406,0,0,0-2.405,2.405,2.4,2.4,0,0,0,2.405,2.405,2.4,2.4,0,0,0,2.405-2.405" transform="translate(-2517.538 1878.152)" fill="#fff"/>
      </g>
      <g id="g122" transform="translate(224.385 213.831)">
        <path id="path124" d="M2173.319-1297.778h-31.157a6.151,6.151,0,0,0-6.151,6.15h0a6.151,6.151,0,0,0,6.151,6.15h31.157a6.151,6.151,0,0,0,6.151-6.15h0a6.151,6.151,0,0,0-6.151-6.15" transform="translate(-2136.011 1297.778)" fill="#e6d0be"/>
      </g>
      <path id="path126" d="M2089.271-1558.591a2.406,2.406,0,0,0-2.405-2.405,2.4,2.4,0,0,0-2.4,2.405,2.4,2.4,0,0,0,2.4,2.4,2.4,2.4,0,0,0,2.405-2.4" transform="translate(-1865.491 1747.177)" fill="#fff"/>
      <g id="g128" transform="translate(228.116 186.181)">
        <path id="path130" d="M2176.338-1558.587a2.4,2.4,0,0,0-2.405-2.4,2.4,2.4,0,0,0-2.405,2.4,2.4,2.4,0,0,0,2.405,2.4,2.4,2.4,0,0,0,2.405-2.4" transform="translate(-2171.528 1560.991)" fill="#fff"/>
      </g>
      <g id="g132" transform="translate(236.968 186.181)">
        <path id="path134" d="M2260.595-1558.586a2.4,2.4,0,0,0-2.4-2.4,2.406,2.406,0,0,0-2.406,2.4,2.406,2.406,0,0,0,2.406,2.4,2.4,2.4,0,0,0,2.4-2.4" transform="translate(-2255.785 1560.991)" fill="#fff"/>
      </g>
      <g id="g136" transform="translate(246.115 186.18)">
        <path id="path138" d="M2347.668-1558.592a2.4,2.4,0,0,0-2.4-2.406,2.4,2.4,0,0,0-2.4,2.406,2.4,2.4,0,0,0,2.4,2.4,2.4,2.4,0,0,0,2.4-2.4" transform="translate(-2342.86 1560.998)" fill="#fff"/>
      </g>
      <g id="g140" transform="translate(255.319 186.18)">
        <path id="path142" d="M2435.29-1558.6a2.4,2.4,0,0,0-2.405-2.405,2.406,2.406,0,0,0-2.4,2.405,2.406,2.406,0,0,0,2.4,2.405,2.4,2.4,0,0,0,2.405-2.405" transform="translate(-2430.48 1561.006)" fill="#fff"/>
      </g>
      <g id="g144" transform="translate(264.464 186.18)">
        <path id="path146" d="M2522.348-1558.594a2.4,2.4,0,0,0-2.405-2.4,2.4,2.4,0,0,0-2.405,2.4,2.406,2.406,0,0,0,2.405,2.405,2.4,2.4,0,0,0,2.405-2.405" transform="translate(-2517.538 1560.998)" fill="#fff"/>
      </g>
      <path id="path148" d="M689.041-806.543H594.876c-3.3-7.344-2.8-17.755,3.292-32.4a39.746,39.746,0,0,1,15.9-8.489c8.953-2.322,18.4-1.4,27.263.868,9.286,2.381,18.578,5.286,26.994,9.966a50.872,50.872,0,0,1,11.46,8.464c1.881,1.889,1.843-.231,3.44,1.892,1.269,1.689,4.434,12.425,5.815,19.7" transform="translate(-530.577 1109.783)" fill="#363e44"/>
      <path id="path150" d="M1014.27-1809.34c-3.179-6.5-5.6-10.01-9.786-11.424-5.62-1.9-10.995,1.811-11.55,2.208-.355.252-5.611,3.542-5.845,9.778a17.148,17.148,0,0,0,8.058,15.341l1.525,13.527a7.914,7.914,0,0,0,8.75,6.978l.984-.112a7.913,7.913,0,0,0,6.977-8.75l-1.019-9.037c2.729-.541,4.819-1.584,5.535-3.078,1.283-2.675.115-7.775-3.629-15.431" transform="translate(-883.385 1980.138)" fill="#e2a18d"/>
      <path id="path152" d="M1222.188-1563.832a.308.308,0,0,1-.306-.266l-.461-3.3a.309.309,0,0,1,.263-.349.308.308,0,0,1,.349.263l.461,3.3a.309.309,0,0,1-.263.349.232.232,0,0,1-.043,0" transform="translate(-1093.11 1753.219)" fill="#363e44"/>
      <path id="path154" d="M1153.64-1642a.3.3,0,0,1-.2-.076c-.424-.37-.8-.713-1.2-1.071-.321-.29-.651-.588-1.025-.919a.308.308,0,0,1-.027-.436.309.309,0,0,1,.436-.027c.375.331.707.632,1.03.924.392.354.769.7,1.19,1.063a.308.308,0,0,1,.03.436.307.307,0,0,1-.233.105" transform="translate(-1030.187 1822)" fill="#363e44"/>
      <path id="path156" d="M906.856-1914.98a6.568,6.568,0,0,1,4.072-8.349l.016-.006a5.618,5.618,0,0,1-1.259-2.06,5.655,5.655,0,0,1,3.507-7.189,5.618,5.618,0,0,1,1.863-.3,5.652,5.652,0,0,1,3.6-6.879,5.64,5.64,0,0,1,4.667.452,6.581,6.581,0,0,1,4.254-4.674,6.585,6.585,0,0,1,8.251,3.762c.154-.069.31-.135.473-.191a5.657,5.657,0,0,1,7.19,3.507,5.656,5.656,0,0,1-3.507,7.189c-.085.03-.171.051-.257.074,1.387,5.349-3.935,7.833-4.236,8.026l4.3,6.542c-.825.567-1.792,1.305-2.618,1.874-1.375-2.336-2.694-2.978-4.18-2.754-2.34.353-3.724,3.066-3.2,5.3a5.5,5.5,0,0,0,4.136,4.336c-2.219.8-4.564,1.578-7.034,2.305q-1.932.569-3.8,1.051a15.72,15.72,0,0,1-9.693-7.592,6.57,6.57,0,0,1-6.542-4.42" transform="translate(-811.27 2090.259)" fill="#363e44"/>
      <path id="path158" d="M514.624-1053.4c27.9,6.208,44.424,10.145,50.558,11.431a11.539,11.539,0,0,0,3.278.283c5.568-.353,7.293-4.781,12.979-7.823,6.451-3.451,12.038-1.742,12.426-3.57.27-1.272-1.656-2.51-6.185-3.4,0,0,0,0,0,0,3.518.28,8.306.451,8.455-1.493.052-2.255-5.549-3.116-8.963-3.472,4.132.43,6.459-.577,6.271-1.682-.294-1.738-3.421-2.82-8.9-3.177h0c3.855-.811,4.67-1.583,4.266-2.518-.737-1.71-5.25-1.919-9.269-1.492a23.327,23.327,0,0,0-9.944,3.7h0c-19.09-6.375-31.743-10.474-47.056-15.935-3.133-1.118-7.911,29.15-7.91,29.15" transform="translate(-460.563 1319.016)" fill="#e2a18d"/>
      <path id="path160" d="M477-1360.37c-25.378,29.478-33.241,51.816-21.783,57.844,6.492,3.416,25.809-10.251,44.071-35.092-7.924-7.239-12.483-14.243-22.288-22.752" transform="translate(-402.796 1567.626)" fill="#e2a18d"/>
      <path id="path162" d="M1601.436-1330.783c31.7,6.74,56.586,13.569,53.869,23.74-5.754,21.525-29.666,10.461-50.919,10.272-.8-8.729-2.207-23.43-2.95-34.012" transform="translate(-1433.207 1541.148)" fill="#e2a18d"/>
      <g id="g164" transform="translate(200.673 162.188)">
        <path id="path166" d="M1910.283-1732.185s9.513-20.9,15.336-31.627c6.118-11.264,16.789-27,18.971-25.48,1.243.867.231,3.315-2.907,9.677a3.126,3.126,0,0,1,2.979.624,3,3,0,0,1,.749,3.257,3.583,3.583,0,0,1,3.064.054,3.306,3.306,0,0,1,1.406,3.515,3.424,3.424,0,0,1,3.036.225,3.076,3.076,0,0,1,1,3.826c-1.327,2.36-5.407,9.3-6.981,12.922-3.1,7.124-10.706,33.9-17.9,43.013-5.382-8.491-18.749-20.005-18.749-20.005" transform="translate(-1910.283 1789.395)" fill="#e2a18d"/>
      </g>
      <g id="g168" transform="translate(239.432 183.657)">
        <path id="path170" d="M2281.4-1583.037a.312.312,0,0,1-.185-.061l-1.838-1.365a.311.311,0,0,1-.064-.433.312.312,0,0,1,.433-.062l1.837,1.365a.309.309,0,0,1,.064.432.308.308,0,0,1-.248.125" transform="translate(-2279.249 1585.019)" fill="#363e44"/>
      </g>
      <g id="g172" transform="translate(234.748 180.202)">
        <path id="path174" d="M2237-1615.683a.3.3,0,0,1-.191-.067l-2.029-1.61a.306.306,0,0,1-.049-.433.307.307,0,0,1,.433-.051l2.029,1.608a.31.31,0,0,1,.051.434.31.31,0,0,1-.243.118" transform="translate(-2234.659 1617.91)" fill="#363e44"/>
      </g>
      <g id="g176" transform="translate(230.371 176.676)">
        <path id="path178" d="M2195.217-1649.423a.316.316,0,0,1-.184-.06c-.344-.255-.652-.487-.962-.72s-.615-.461-.956-.716a.308.308,0,0,1-.064-.432.308.308,0,0,1,.432-.066c.345.256.652.489.962.72s.613.463.956.717a.308.308,0,0,1,.064.432.3.3,0,0,1-.248.124" transform="translate(-2192.99 1651.477)" fill="#363e44"/>
      </g>
      <g id="g180" transform="translate(226.387 174.214)">
        <path id="path182" d="M2157.292-1673.077a.306.306,0,0,1-.166-.048l-1.92-1.217a.309.309,0,0,1-.1-.427.309.309,0,0,1,.426-.094l1.92,1.216a.308.308,0,0,1,.1.426.308.308,0,0,1-.26.143" transform="translate(-2155.063 1674.91)" fill="#363e44"/>
      </g>
      <path id="path184" d="M523.842-1449.361a27.614,27.614,0,0,1,16.138-13.425,95.484,95.484,0,0,1,38.32-3.716c29.964,3.182,63.889,13.777,63.889,13.777v43.823l-21.845-4.553-4.778,35.8-89.34-15.214,3.813-25.223-15.417-13.927,9.218-17.339" transform="translate(-460.564 1663.089)" fill="#efbc73"/>
      <g id="g186" transform="translate(55.758 91.521)">
        <path id="path188" d="M530.778-2462.1v21.455a27.525,27.525,0,0,0,27.525,27.525h0a27.525,27.525,0,0,0,27.525-27.525V-2462.1h-55.05" transform="translate(-530.778 2462.098)" fill="#f7f1eb"/>
      </g>
      <g id="g190" transform="translate(55.449 91.213)">
        <path id="path192" d="M528.457-2464.414v21.146a27.246,27.246,0,0,0,27.216,27.215,27.246,27.246,0,0,0,27.216-27.215v-21.146Zm27.216,48.979a27.865,27.865,0,0,1-27.834-27.833v-21.456a.309.309,0,0,1,.309-.308H583.2a.309.309,0,0,1,.309.308v21.456a27.865,27.865,0,0,1-27.833,27.833" transform="translate(-527.839 2465.032)" fill="#363e44"/>
      </g>
      <g id="g194" transform="translate(58.481 60.953)">
        <path id="path196" d="M606-2727.975a.309.309,0,0,1-.309-.309,24.21,24.21,0,0,0-24.184-24.183,24.211,24.211,0,0,0-24.184,24.183.309.309,0,0,1-.309.309.309.309,0,0,1-.309-.309,24.83,24.83,0,0,1,24.8-24.8,24.83,24.83,0,0,1,24.8,24.8.309.309,0,0,1-.309.309" transform="translate(-556.702 2753.085)" fill="#363e44"/>
      </g>
      <g id="g198" transform="translate(71.6 100.354)">
        <path id="path200" d="M692.748-2353.145,681.583-2363.3l3.449-4.251,7.079,5.658,11.108-16.123,4.519,3.111-14.99,21.756" transform="translate(-681.583 2378.012)" fill="#d87355"/>
      </g>
      <g id="g202" transform="translate(142.38 61.136)">
        <path id="path204" d="M1380.627-2734.7a8.948,8.948,0,0,1-8.62,8.619,8.915,8.915,0,0,1-9.2-9.2,8.949,8.949,0,0,1,8.62-8.621,8.916,8.916,0,0,1,9.2,9.2Zm7.439-3.018h-1.611a15.015,15.015,0,0,0-.611-2.286l1.394-.8-2.726-4.72-1.4.805a15.069,15.069,0,0,0-1.672-1.67l.807-1.4-4.72-2.725-.8,1.394a15.071,15.071,0,0,0-2.286-.612v-1.61h-5.45v1.61a15.07,15.07,0,0,0-2.286.612l-.8-1.394-4.72,2.725.807,1.4a15.058,15.058,0,0,0-1.672,1.67l-1.4-.805-2.725,4.72,1.394.8a14.987,14.987,0,0,0-.611,2.286h-1.611v5.451h1.611a14.976,14.976,0,0,0,.611,2.285l-1.394.8,2.725,4.72,1.4-.807a15.24,15.24,0,0,0,1.672,1.672l-.807,1.4,4.72,2.726h0l.8-1.394a14.653,14.653,0,0,0,2.286.612v1.61h5.45v-1.61a14.654,14.654,0,0,0,2.286-.612l.8,1.394h0l4.72-2.726-.807-1.4a15.252,15.252,0,0,0,1.672-1.672l1.4.807,2.726-4.72-1.394-.8a15,15,0,0,0,.611-2.285h1.611v-5.451" transform="translate(-1355.365 2751.346)" fill="#e6d0be"/>
      </g>
      <g id="g206" transform="translate(146.499 65.387)">
        <path id="path208" d="M1406.817-2686.545a12.244,12.244,0,0,1-12.232-12.23,12.3,12.3,0,0,1,10.4-12.094.311.311,0,0,1,.352.259.308.308,0,0,1-.26.351,11.68,11.68,0,0,0-9.873,11.484,11.627,11.627,0,0,0,11.614,11.614,11.61,11.61,0,0,0,11.24-8.687.31.31,0,0,1,.377-.222.309.309,0,0,1,.221.377,12.227,12.227,0,0,1-11.838,9.148" transform="translate(-1394.585 2710.873)" fill="#f2e6dc"/>
      </g>
    </g>
  </g>
</svg>
