<svg xmlns="http://www.w3.org/2000/svg" width="354.698" height="264.328" viewBox="0 0 354.698 264.328">
  <g id="otp" transform="translate(0 496.811)">
    <g id="g12" transform="translate(0 -496.811)">
      <path id="path14" d="M0-60.04H354.7v-.177H0Z" transform="translate(0 292.506)" fill="#eee"/>
      <path id="path16" d="M555.7-38.756h23.5v.177H555.7v-.177" transform="translate(-260.042 282.464)" fill="#eee"/>
      <path id="path18" d="M430.035-35.138H436.2v.177h-6.167v-.177" transform="translate(-201.235 280.771)" fill="#eee"/>
      <path id="path20" d="M528.78-50.961h13.615v-.177H528.78Z" transform="translate(-247.443 288.258)" fill="#eee"/>
      <path id="path22" d="M69.945-48.9h30.641v.177H69.945V-48.9" transform="translate(-32.731 287.209)" fill="#eee"/>
      <path id="path24" d="M139.408-48.9H143.9v.177h-4.493V-48.9" transform="translate(-65.236 287.209)" fill="#eee"/>
      <path id="path26" d="M175.294-43.091h66.453v-.177H175.294Z" transform="translate(-82.029 284.575)" fill="#eee"/>
      <path id="path28" d="M54.992-496.633a3.876,3.876,0,0,0-3.872,3.871v192.553a3.876,3.876,0,0,0,3.872,3.872H191.976a3.876,3.876,0,0,0,3.871-3.872V-492.762a3.876,3.876,0,0,0-3.871-3.871H54.992M191.976-296.16H54.992a4.053,4.053,0,0,1-4.049-4.049V-492.762a4.054,4.054,0,0,1,4.049-4.049H191.976a4.054,4.054,0,0,1,4.049,4.049v192.553a4.053,4.053,0,0,1-4.049,4.049" transform="translate(-23.839 496.811)" fill="#eee"/>
      <path id="path30" d="M343.388-496.633a3.876,3.876,0,0,0-3.871,3.871v192.553a3.876,3.876,0,0,0,3.871,3.872H480.371a3.876,3.876,0,0,0,3.872-3.872V-492.762a3.876,3.876,0,0,0-3.872-3.871H343.388M480.371-296.16H343.388a4.053,4.053,0,0,1-4.049-4.049V-492.762a4.053,4.053,0,0,1,4.049-4.049H480.371a4.054,4.054,0,0,1,4.049,4.049v192.553a4.054,4.054,0,0,1-4.049,4.049" transform="translate(-158.794 496.811)" fill="#eee"/>
      <path id="path32" d="M88.194-184.49H199.24V-325.106H88.194Z" transform="translate(-41.27 416.461)" fill="#f4f4f4"/>
      <path id="path34" d="M95.571-285.4h103.2v-30.069H95.571Z" transform="translate(-44.723 411.954)" fill="#e3e3e2"/>
      <path id="path36" d="M95.571-281.123h5.862v-25.2H95.571Z" transform="translate(-44.723 407.673)" fill="#eee"/>
      <path id="path38" d="M148.848-281.123h5.862v-25.2h-5.862Z" transform="translate(-69.653 407.673)" fill="#eee"/>
      <path id="path40" d="M219.547-282.673l-5.777,1-4.28-24.835,5.777-1,4.28,24.835" transform="translate(-98.031 408.226)" fill="#eee"/>
      <path id="path42" d="M109.224-278.2h5.862v-21.88h-5.862Z" transform="translate(-51.111 404.752)" fill="#eee"/>
      <path id="path44" d="M134.549-278.2h5.862v-21.88h-5.862Z" transform="translate(-62.962 404.752)" fill="#eee"/>
      <path id="path46" d="M198.473-278.2h5.862v-21.88h-5.862Z" transform="translate(-92.876 404.752)" fill="#eee"/>
      <path id="path48" d="M174.051-280.135l-5.723,1.272-4.746-21.359,5.723-1.272,4.746,21.359" transform="translate(-76.549 405.412)" fill="#eee"/>
      <path id="path50" d="M124.26-282.224h2.931v-26.453H124.26Z" transform="translate(-58.148 408.773)" fill="#eee"/>
      <path id="path52" d="M189.8-282.224h2.931v-26.453H189.8Z" transform="translate(-88.815 408.773)" fill="#eee"/>
      <path id="path54" d="M95.571-219.941h103.2V-250.01H95.571Z" transform="translate(-44.723 381.32)" fill="#e3e3e2"/>
      <path id="path56" d="M278.511-215.659h5.863v-25.2h-5.863Z" transform="translate(-130.33 377.039)" fill="#eee"/>
      <path id="path58" d="M225.235-215.659H231.1v-25.2h-5.862Z" transform="translate(-105.399 377.039)" fill="#eee"/>
      <path id="path60" d="M156.708-217.208l5.777,1,4.281-24.835-5.777-1-4.28,24.835" transform="translate(-73.332 377.592)" fill="#eee"/>
      <path id="path62" d="M264.859-212.738h5.862v-21.88h-5.862Z" transform="translate(-123.941 374.117)" fill="#eee"/>
      <path id="path64" d="M239.534-212.738H245.4v-21.88h-5.862Z" transform="translate(-112.09 374.117)" fill="#eee"/>
      <path id="path66" d="M175.612-212.738h5.862v-21.88h-5.862Z" transform="translate(-82.178 374.117)" fill="#eee"/>
      <path id="path68" d="M201.843-214.67l5.723,1.271,4.746-21.359-5.723-1.272-4.746,21.36" transform="translate(-94.453 374.778)" fill="#eee"/>
      <path id="path70" d="M255.331-216.759h2.931v-26.452h-2.931Z" transform="translate(-119.483 378.139)" fill="#eee"/>
      <path id="path72" d="M189.8-216.759h2.931v-26.452H189.8Z" transform="translate(-88.815 378.139)" fill="#eee"/>
      <path id="path74" d="M95.571-215.659h5.862v-25.2H95.571Z" transform="translate(-44.723 377.039)" fill="#eee"/>
      <path id="path76" d="M109.224-212.738h5.862v-21.88h-5.862Z" transform="translate(-51.111 374.117)" fill="#eee"/>
      <path id="path78" d="M134.549-212.738h5.862v-21.88h-5.862Z" transform="translate(-62.962 374.117)" fill="#eee"/>
      <path id="path80" d="M124.26-216.759h2.931v-26.452H124.26Z" transform="translate(-58.148 378.139)" fill="#eee"/>
      <path id="path82" d="M95.571-154.476h103.2v-30.068H95.571Z" transform="translate(-44.723 350.685)" fill="#e3e3e2"/>
      <path id="path84" d="M206.9-150.195h5.862v-25.2H206.9Z" transform="translate(-96.818 346.404)" fill="#eee"/>
      <path id="path86" d="M277.6-151.744l-5.778,1-4.28-24.835,5.777-1,4.28,24.835" transform="translate(-125.195 346.958)" fill="#eee"/>
      <path id="path88" d="M167.273-147.274h5.862v-21.88h-5.862Z" transform="translate(-78.276 343.483)" fill="#eee"/>
      <path id="path90" d="M192.6-147.274h5.862v-21.88H192.6Z" transform="translate(-90.127 343.483)" fill="#eee"/>
      <path id="path92" d="M256.522-147.274h5.862v-21.88h-5.862Z" transform="translate(-120.04 343.483)" fill="#eee"/>
      <path id="path94" d="M232.1-149.206l-5.723,1.272-4.746-21.359,5.723-1.271,4.746,21.359" transform="translate(-103.713 344.144)" fill="#eee"/>
      <path id="path96" d="M182.309-151.3h2.931v-26.452h-2.931Z" transform="translate(-85.312 347.505)" fill="#eee"/>
      <path id="path98" d="M247.845-151.3h2.931v-26.452h-2.931Z" transform="translate(-115.979 347.505)" fill="#eee"/>
      <path id="path100" d="M150.837-151.744l-5.777,1-4.28-24.835,5.777-1,4.28,24.835" transform="translate(-65.878 346.958)" fill="#eee"/>
      <path id="path102" d="M129.761-147.274h5.863v-21.88h-5.863Z" transform="translate(-60.722 343.483)" fill="#eee"/>
      <path id="path104" d="M105.339-149.206l-5.723,1.272-4.746-21.359,5.723-1.271,4.746,21.359" transform="translate(-44.395 344.144)" fill="#eee"/>
      <path id="path106" d="M121.085-151.3h2.931v-26.452h-2.931Z" transform="translate(-56.662 347.505)" fill="#eee"/>
      <path id="path108" d="M396.234-218.57h62.579a12.29,12.29,0,0,1,12.29,12.29v48.867h-87.16v-48.867a12.29,12.29,0,0,1,12.291-12.29" transform="translate(-179.667 366.608)" fill="#e9e9e8"/>
      <path id="path110" d="M342.745-150.5h11.2a7.3,7.3,0,0,1,7.3,7.3v40.412h-25.8v-40.412a7.3,7.3,0,0,1,7.3-7.3" transform="translate(-156.97 334.753)" fill="#e3e3e2"/>
      <path id="path112" d="M342.745-150.5h.237a7.3,7.3,0,0,1,7.3,7.3v40.412H335.442v-40.412a7.3,7.3,0,0,1,7.3-7.3" transform="translate(-156.97 334.753)" fill="#eee"/>
      <path id="path114" d="M369.215-77.141H455.1V-95.7H369.215Z" transform="translate(-172.775 309.112)" fill="#e9e9e8"/>
      <path id="path116" d="M362.455-127.614h82.824a7.426,7.426,0,0,1,7.425,7.425v4.625a7.425,7.425,0,0,1-7.425,7.425H362.455a7.425,7.425,0,0,1-7.425-7.425v-4.625a7.425,7.425,0,0,1,7.425-7.425" transform="translate(-166.137 324.045)" fill="#f8f8f9"/>
      <path id="path118" d="M498.561-127.614h10.273a7.425,7.425,0,0,1,7.425,7.425v4.625a7.424,7.424,0,0,1-7.425,7.425H498.561a7.425,7.425,0,0,1-7.425-7.425v-4.625a7.426,7.426,0,0,1,7.425-7.425" transform="translate(-229.828 324.045)" fill="#e3e3e2"/>
      <path id="path120" d="M520.059-150.5h11.2a7.3,7.3,0,0,1,7.3,7.3v40.412h-25.8v-40.412a7.3,7.3,0,0,1,7.3-7.3" transform="translate(-239.945 334.753)" fill="#e3e3e2"/>
      <path id="path122" d="M520.059-150.5h.237a7.3,7.3,0,0,1,7.3,7.3v40.412H512.756v-40.412a7.3,7.3,0,0,1,7.3-7.3" transform="translate(-239.945 334.753)" fill="#f4f4f4"/>
      <path id="path124" d="M197.318-402.913a16.709,16.709,0,0,0-16.709-16.71,16.71,16.71,0,0,0-16.709,16.71A16.71,16.71,0,0,0,180.609-386.2a16.709,16.709,0,0,0,16.709-16.709" transform="translate(-76.697 460.691)" fill="#e3e3e2"/>
      <path id="path126" d="M197.016-400.713a14.207,14.207,0,0,0-14.207-14.208A14.207,14.207,0,0,0,168.6-400.713a14.207,14.207,0,0,0,14.207,14.207,14.207,14.207,0,0,0,14.207-14.207" transform="translate(-78.898 458.49)" fill="#f4f4f4"/>
      <path id="path128" d="M188.257-378.634v-9.932l-6.582,3.724" transform="translate(-85.015 446.157)" fill="#f4f4f4"/>
      <path id="path130" d="M188.343-379.258v-9.932a.707.707,0,0,0-.353-.613.706.706,0,0,0-.707,0l-6.582,3.724a.71.71,0,0,0-.267.967.709.709,0,0,0,.966.267l5.523-3.125v8.715a.709.709,0,0,0,.709.709.71.71,0,0,0,.709-.709" transform="translate(-84.391 446.782)" fill="#e3e3e2"/>
      <path id="path132" d="M370.475-332.941H477.418v-94.9H370.475Z" transform="translate(-173.364 464.534)" fill="#e9e9e8"/>
      <path id="path134" d="M375.508-333.2h101.45v-89.744H375.508Z" transform="translate(-175.72 462.246)" fill="#f4f4f4"/>
      <path id="path136" d="M399.318-422.947,375.508-333.4v-42.079l12.571-47.471h11.238" transform="translate(-175.72 462.246)" fill="#fff"/>
      <path id="path138" d="M411.611-422.947,387.594-333.2H383.76l24.018-89.744h3.833" transform="translate(-179.581 462.246)" fill="#fff"/>
      <path id="path140" d="M558.541-316.511v14.34L553.682-283.4h-3.834l8.693-33.115" transform="translate(-257.302 412.439)" fill="#fff"/>
      <path id="path142" d="M438.8-332.617h1.71v-93.362H438.8Z" transform="translate(-205.338 463.665)" fill="#e9e9e8"/>
      <path id="path144" d="M501.049-332.617h1.709v-93.362h-1.709Z" transform="translate(-234.467 463.665)" fill="#e9e9e8"/>
      <path id="path146" d="M349.9-22.163c0,4.436-61.58,8.032-137.544,8.032s-137.544-3.6-137.544-8.032S136.4-30.2,212.359-30.2,349.9-26.6,349.9-22.163" transform="translate(-35.01 278.458)" fill="#f8f8f9"/>
      <path id="path148" d="M532.084-93.762s3.37-7.352-.48-14.6-4.966-8.955-2.512-10.441,3.58,5.8,3.58,5.8a16.366,16.366,0,0,0,.36-10.254c-1.708-5.244-2.779-13.785-.447-14.7s.445,10.654,2.47,14.6a33.975,33.975,0,0,0,1.98-8.6c.279-4.211-.158-10.937,1.685-12.661s3.023-.531,1.212,8.762a97.278,97.278,0,0,0-1.8,16.85s4-12.192,6.683-12.547,2.68,3.592.383,7.017-6.727,9.56-7.454,12.717c0,0,4.389-9.175,8.337-6.363s-3.437,8.354-6.729,10.357-5.577,14.555-5.577,14.555l-1.7-.484" transform="translate(-246.98 332.316)" fill="#4870c0"/>
      <path id="path150" d="M533.78-93.277l-1.7-.484a18.468,18.468,0,0,0,1.366-7.017,16.04,16.04,0,0,0-1.845-7.583c-2.471-4.651-3.816-7.02-3.814-8.513a2.167,2.167,0,0,1,1.3-1.928,1.243,1.243,0,0,1,.647-.2c2.006,0,2.933,6,2.933,6a16.837,16.837,0,0,0,1.036-5.84,14.264,14.264,0,0,0-.676-4.415,37.656,37.656,0,0,1-1.79-10.463c0-2.2.384-3.86,1.343-4.237a.676.676,0,0,1,.248-.051c1.949,0,.275,10.855,2.223,14.649a33.972,33.972,0,0,0,1.98-8.6c.28-4.211-.157-10.937,1.685-12.661a2,2,0,0,1,1.192-.666c.563,0,.922.69.922,2.42a39.759,39.759,0,0,1-.9,7.009,97.374,97.374,0,0,0-1.8,16.846h0s4-12.192,6.683-12.547a2.412,2.412,0,0,1,.327-.023c1.171,0,1.736.933,1.735,2.274a9.115,9.115,0,0,1-1.679,4.765c-2.3,3.425-6.727,9.56-7.454,12.717h0s3.3-6.9,6.751-6.9a2.686,2.686,0,0,1,1.586.536,2.374,2.374,0,0,1,1.132,1.988,5.589,5.589,0,0,1-1.621,3.309,28.518,28.518,0,0,1-6.24,5.059c-1.558.948-2.891,4.261-3.863,7.487-.032.106-.063.211-.094.317-.018.059-.035.118-.052.177-.508,1.745-.907,3.428-1.175,4.653-.013.06-.026.12-.039.177-.231,1.065-.353,1.742-.353,1.742" transform="translate(-246.98 332.316)" fill="#0ca56b"/>
      <path id="path152" d="M527.788-88.194s-3.281-7.4.655-14.592,5.074-8.88,2.638-10.4-3.65,5.745-3.65,5.745a16.375,16.375,0,0,1-.238-10.259c1.771-5.218,2.945-13.741.623-14.692s-.573,10.646-2.645,14.56a34.034,34.034,0,0,1-1.876-8.631c-.229-4.216.288-10.934-1.533-12.686s-3.016-.577-1.317,8.744a97.274,97.274,0,0,1,1.595,16.874s-3.851-12.25-6.531-12.646-2.723,3.553-.467,7.011,6.612,9.659,7.3,12.827c0,0-4.279-9.24-8.261-6.487s3.336,8.4,6.6,10.456,5.4,14.637,5.4,14.637l1.7-.459" transform="translate(-240.024 329.763)" fill="#23cd8d"/>
      <path id="path154" d="M512.416-52.692h27.107l-2.194,19.4H514.609l-2.193-19.4" transform="translate(-239.786 288.985)" fill="#1d2a30"/>
      <path id="path156" d="M256.377-73.543V-71a.571.571,0,0,1-.576.57H183.854a3.75,3.75,0,0,1-3.482-5.15l22.8-56.467,36.845.251-1.258,7.327-8.128,47.42a2.507,2.507,0,0,0,2.469,2.933h22.7a.57.57,0,0,1,.576.569" transform="translate(-84.277 326.117)" fill="#1d2a30"/>
      <path id="path158" d="M275.274-44.32l1.2-6.981h0l-1.2,6.981h0m1.227-7.159h0l1.515-8.84h0l-1.515,8.84m1.546-9.018h0l.055-.317h0l-.055.317" transform="translate(-128.815 292.785)" fill="#fff"/>
      <path id="path160" d="M280.427-60.04h0l.031-.177h0l-.031.177" transform="translate(-131.226 292.506)" fill="#f8f8f9"/>
      <path id="path162" d="M277.522-43.091h0l.03-.177h0l-.03.177" transform="translate(-129.867 284.575)" fill="#f8f8f9"/>
      <path id="path164" d="M280.587-69.343h0l1.661-9.7h0l-1.662,9.7" transform="translate(-131.301 301.314)" fill="#fafbfb"/>
      <path id="path166" d="M275.078-29.207l.1-.607h0l-.1.607" transform="translate(-128.723 278.279)" fill="#fcfdfd"/>
      <path id="path168" d="M255.8-53.544H183.854a3.755,3.755,0,0,1-3.757-3.746,3.747,3.747,0,0,1,.275-1.4l14.137-35,.915-2.268-.915,2.268L198.7-93,184.772-59.5a1.643,1.643,0,0,0,1.517,2.273H233.1a2.507,2.507,0,0,1-2.506-2.5,2.507,2.507,0,0,0,2.506,2.5h22.7a.57.57,0,0,1,.576.569v2.547a.571.571,0,0,1-.576.57" transform="translate(-84.277 309.234)" fill="#8e989b"/>
      <path id="path170" d="M280.587-69.343h0l1.661-9.7h0l-1.662,9.7" transform="translate(-131.301 301.314)" fill="#c7c6c4"/>
      <path id="path172" d="M237.1-54.625H190.288a1.643,1.643,0,0,1-1.517-2.273L202.7-90.4l36.525,6.044-1.662,9.7-.055.317-.03.177-1.515,8.84-.031.177-1.3,7.588a2.452,2.452,0,0,0-.037.434h0a2.507,2.507,0,0,0,2.506,2.5" transform="translate(-88.276 306.629)" fill="#6e767b"/>
      <path id="path174" d="M283.711-86.959h0l1.543-9.006h0l-1.543,9.006" transform="translate(-132.763 309.234)" fill="#e2e2e0"/>
      <path id="path176" d="M211.375-93l-4.19-.693.915-2.268h4.507L211.375-93" transform="translate(-96.952 309.234)" fill="#7e878b"/>
      <path id="path178" d="M251.586-86.959,215.061-93l1.232-2.962h36.837l-1.544,9" transform="translate(-100.638 309.234)" fill="#61696d"/>
      <path id="path180" d="M273.513-329.414H102.938a4.365,4.365,0,0,0-4.365,4.365v115.477a4.365,4.365,0,0,0,4.365,4.364H273.513a4.365,4.365,0,0,0,4.365-4.364V-325.049a4.365,4.365,0,0,0-4.365-4.365" transform="translate(-46.127 418.477)" fill="#1d2a30"/>
      <path id="path182" d="M273.074-205.208H102.938a4.365,4.365,0,0,1-4.365-4.365V-325.049a4.358,4.358,0,0,1,1.792-3.526,4.361,4.361,0,0,0-1.789,3.529V-209.57a4.36,4.36,0,0,0,4.36,4.359h3.616a4.36,4.36,0,0,1-4.36-4.359V-325.047a4.362,4.362,0,0,1,4.3-4.367H273.513a4.365,4.365,0,0,1,4.365,4.365v16.84c-1.166-1.318-2.491-2.707-3.931-4.041v-13.413H106.127v.523h0v71.159h0l0,39.671h66.93c-.05.176-.1.351-.148.525H273.946v-.525h0v-68.226c1.195,1.26,2.319,2.421,3.266,3.387.233.238.455.465.665.678v31.115l-.944,6.636.944.243v1.1c-.318,1.974-.69,4.333-1.1,7-.15.978-.3,1.994-.463,3.052-.335,2.225-.679,4.612-1.036,7.138-.732,5.2-1.495,10.966-2.21,16.981" transform="translate(-46.127 418.477)" fill="#a5adad"/>
      <path id="path184" d="M101.941-328.576a4.337,4.337,0,0,1,2.571-.839h0a4.346,4.346,0,0,0-2.573.839" transform="translate(-47.704 418.478)" fill="#cecdcc"/>
      <path id="path186" d="M106.554-205.211h-3.616a4.36,4.36,0,0,1-4.36-4.359V-325.047a4.361,4.361,0,0,1,1.789-3.529,4.347,4.347,0,0,1,2.573-.839H106.5a4.362,4.362,0,0,0-4.3,4.367V-209.57a4.36,4.36,0,0,0,4.36,4.359" transform="translate(-46.13 418.477)" fill="#80888b"/>
      <path id="path188" d="M112.771-211.013H280.59V-322.366H112.771Z" transform="translate(-52.771 415.179)" fill="#11bd7c"/>
      <path id="path190" d="M258.232-278.915v-1.364a2.4,2.4,0,0,1,2.4-2.4h2.152a2.4,2.4,0,0,1,2.4,2.4v1.364h1.554v-1.364a3.958,3.958,0,0,0-3.953-3.953h-2.152a3.957,3.957,0,0,0-3.953,3.953v1.364h1.554" transform="translate(-120.113 397.335)" fill="#fff"/>
      <path id="path192" d="M260.436-267.512v1.408h-.9v-1.408a.869.869,0,0,1-.435-.744.883.883,0,0,1,.883-.884.884.884,0,0,1,.884.884.87.87,0,0,1-.436.744M253-271.568v7.161a.793.793,0,0,0,.792.792h12.387a.793.793,0,0,0,.792-.792v-7.161a.792.792,0,0,0-.792-.792H253.794a.792.792,0,0,0-.792.792" transform="translate(-118.393 391.778)" fill="#fff"/>
      <path id="path194" d="M185.915-203.283H172.152a1.483,1.483,0,0,1-1.483-1.483v-13.762a1.483,1.483,0,0,1,1.483-1.483h13.762a1.483,1.483,0,0,1,1.483,1.483v13.762a1.482,1.482,0,0,1-1.483,1.483" transform="translate(-79.865 367.282)" fill="#fff"/>
      <path id="path196" d="M225.785-203.327H212.023a1.483,1.483,0,0,1-1.483-1.483v-13.762a1.483,1.483,0,0,1,1.483-1.483h13.762a1.482,1.482,0,0,1,1.483,1.483v13.762a1.482,1.482,0,0,1-1.483,1.483" transform="translate(-98.522 367.302)" fill="#fff"/>
      <path id="path198" d="M265.656-203.371H251.893a1.482,1.482,0,0,1-1.482-1.483v-13.762a1.482,1.482,0,0,1,1.482-1.483h13.763a1.483,1.483,0,0,1,1.483,1.483v13.762a1.482,1.482,0,0,1-1.483,1.483" transform="translate(-117.18 367.323)" fill="#fff"/>
      <path id="path200" d="M305.526-203.415H291.764a1.483,1.483,0,0,1-1.483-1.483v-13.763a1.483,1.483,0,0,1,1.483-1.483h13.762a1.483,1.483,0,0,1,1.483,1.483V-204.9a1.483,1.483,0,0,1-1.483,1.483" transform="translate(-135.837 367.344)" fill="#fff"/>
      <path id="path202" d="M345.4-203.461H331.635a1.482,1.482,0,0,1-1.483-1.482v-13.763a1.484,1.484,0,0,1,1.483-1.483H345.4a1.483,1.483,0,0,1,1.483,1.483v13.763a1.482,1.482,0,0,1-1.483,1.482" transform="translate(-154.495 367.365)" fill="#fff"/>
      <path id="path204" d="M345.023-207.919c0-2.31-.98-3.47-2.387-3.47s-2.4,1.161-2.4,3.47.98,3.471,2.4,3.471,2.387-1.161,2.387-3.471m-6.077,0c0-2.941,1.574-4.619,3.69-4.619s3.678,1.678,3.678,4.619-1.575,4.62-3.678,4.62-3.69-1.677-3.69-4.62" transform="translate(-158.61 363.785)" fill="#1d2a30"/>
      <path id="path206" d="M184.978-209.751c0-.929-.748-1.742-2.154-1.742a1.777,1.777,0,0,0-1.987,1.755c0,1.058.787,1.742,2.052,1.742a1.877,1.877,0,0,0,2.09-1.754m1.587,1.716c0,3.084-1.742,4.735-4.271,4.735a4.346,4.346,0,0,1-2.245-.529l.49-1.006a3.183,3.183,0,0,0,1.742.426c1.832,0,2.993-1.149,2.993-3.407v-.322a3.013,3.013,0,0,1-2.606,1.187,2.78,2.78,0,0,1-3.084-2.735,2.911,2.911,0,0,1,3.187-2.852c2.426,0,3.793,1.626,3.793,4.5" transform="translate(-84.037 363.785)" fill="#1d2a30"/>
      <path id="path208" d="M225.412-207.918c0-2.31-.981-3.47-2.387-3.47s-2.4,1.161-2.4,3.47.98,3.471,2.4,3.471,2.387-1.161,2.387-3.471m-6.077,0c0-2.941,1.574-4.619,3.69-4.619s3.678,1.678,3.678,4.619-1.575,4.62-3.678,4.62-3.69-1.677-3.69-4.62" transform="translate(-102.638 363.784)" fill="#1d2a30"/>
      <path id="path210" d="M266.3-204.525v1.122h-6.49v-.878l3.677-3.548c.955-.929,1.135-1.5,1.135-2.064,0-.929-.658-1.5-1.922-1.5a2.834,2.834,0,0,0-2.31.981l-.878-.762a4.167,4.167,0,0,1,3.3-1.368c1.883,0,3.1.968,3.1,2.516a3.659,3.659,0,0,1-1.484,2.839l-2.762,2.659H266.3" transform="translate(-121.437 363.785)" fill="#1d2a30"/>
      <path id="path212" d="M305.024-212.343v9.032h-1.278v-7.91h-2.038v-1.122h3.316" transform="translate(-141.185 363.694)" fill="#1d2a30"/>
      <path id="path214" d="M271.716-228.172a1.183,1.183,0,0,1-.7-.2l.358-.192a.929.929,0,0,0,.381.073.822.822,0,0,0,.876-.756l.366-.2v1.249h-.338v-.477a1.04,1.04,0,0,1-.939.5" transform="translate(-126.821 371.697)" fill="#b4caec"/>
      <path id="path216" d="M276.943-229.325h-.353v-1.795c.439-.244.88-.491,1.317-.737v.241l-.084,0a.846.846,0,0,0-.88.964v1.332" transform="translate(-129.431 372.825)" fill="#b4caec"/>
      <path id="path218" d="M284.167-230.154a1.751,1.751,0,0,1-1.829-1.769,1.751,1.751,0,0,1,1.829-1.769,1.749,1.749,0,0,1,1.823,1.769,1.749,1.749,0,0,1-1.823,1.769m0-3.21a1.414,1.414,0,0,0-1.466,1.441,1.414,1.414,0,0,0,1.466,1.441,1.409,1.409,0,0,0,1.456-1.441,1.409,1.409,0,0,0-1.456-1.441" transform="translate(-132.12 373.684)" fill="#b4caec"/>
      <path id="path220" d="M291.217-230.157h-.367v-3.16h-1.222v-.319h2.812v.319h-1.222v3.16" transform="translate(-135.531 373.658)" fill="#b4caec"/>
      <path id="path222" d="M296.379-230.157h-.368v-3.478h1.3c.885,0,1.422.447,1.422,1.192s-.537,1.188-1.422,1.188h-.934v1.1m0-3.16v1.739h.924c.7,0,1.063-.318,1.063-.865s-.367-.874-1.063-.874h-.924" transform="translate(-138.519 373.658)" fill="#b4caec"/>
      <path id="path224" d="M241.486-173.816a1.882,1.882,0,0,1-1.292-.453l.144-.283a1.709,1.709,0,0,0,1.148.422c.651,0,.934-.273.934-.616,0-.954-2.142-.368-2.142-1.654,0-.512.4-.954,1.282-.954a1.965,1.965,0,0,1,1.078.308l-.124.293a1.792,1.792,0,0,0-.954-.288c-.636,0-.919.283-.919.631,0,.954,2.142.378,2.142,1.645,0,.511-.407.949-1.3.949" transform="translate(-112.399 347.321)" fill="#b4caec"/>
      <path id="path226" d="M247.3-173.052a1.294,1.294,0,0,1-1.371-1.332,1.259,1.259,0,0,1,1.277-1.327,1.245,1.245,0,0,1,1.267,1.327l0,.109h-2.186a.968.968,0,0,0,1.029.909,1.031,1.031,0,0,0,.8-.343l.2.228a1.285,1.285,0,0,1-1.009.428m-.094-2.356a.908.908,0,0,0-.924.87h1.854a.909.909,0,0,0-.929-.87" transform="translate(-115.081 346.551)" fill="#b4caec"/>
      <path id="path228" d="M254.462-173.077h-.353v-1.481a.73.73,0,0,0-.785-.835.857.857,0,0,0-.914.944v1.371h-.353v-2.613h.338v.482a1.1,1.1,0,0,1,.994-.5,1,1,0,0,1,1.073,1.118v1.515" transform="translate(-117.95 346.551)" fill="#b4caec"/>
      <path id="path230" d="M259.2-173.979a1.268,1.268,0,0,1-1.3-1.332,1.264,1.264,0,0,1,1.3-1.327,1.142,1.142,0,0,1,.994.516v-1.571h.353V-174h-.338v-.517a1.134,1.134,0,0,1-1.009.542m.03-2.35a.957.957,0,0,0-.974,1.019.956.956,0,0,0,.974,1.018.955.955,0,0,0,.968-1.018.956.956,0,0,0-.968-1.019" transform="translate(-120.684 347.479)" fill="#b4caec"/>
      <path id="path232" d="M266.939-175.092l-.052-.086a1.308,1.308,0,0,1,.216-.148l-.165.234" transform="translate(-124.89 346.372)" fill="#b4caec"/>
      <path id="path234" d="M233.337-147.795h-9.543a5.893,5.893,0,0,1-5.893-5.894,5.893,5.893,0,0,1,5.893-5.894h15.151c-.935,1.688-1.81,3.383-2.628,5.071a2.024,2.024,0,0,0-2.042-1.51,2.018,2.018,0,0,0-2.115,2.03,2.017,2.017,0,0,0,2.115,2.03,2.276,2.276,0,0,0,.935-.193q-1,2.2-1.874,4.359m.939-4.669a1.494,1.494,0,0,1-1.548-1.527,1.493,1.493,0,0,1,1.548-1.525,1.49,1.49,0,0,1,1.537,1.525,1.491,1.491,0,0,1-1.537,1.527" transform="translate(-101.967 339.004)" fill="#8daee0" opacity="0.58"/>
      <path id="path236" d="M237.15-150.859a2.008,2.008,0,0,1,2.1-2.03,1.961,1.961,0,0,1,1.509.619l-.369.357a1.472,1.472,0,0,0-1.117-.47,1.5,1.5,0,0,0-1.559,1.525,1.5,1.5,0,0,0,1.559,1.527,1.476,1.476,0,0,0,1.117-.477l.369.358a1.971,1.971,0,0,1-1.515.624,2.007,2.007,0,0,1-2.1-2.031" transform="translate(-110.975 335.872)" fill="#fff"/>
      <path id="path238" d="M248.355-150.859a1.49,1.49,0,0,0-1.537-1.525,1.493,1.493,0,0,0-1.548,1.525,1.494,1.494,0,0,0,1.548,1.527,1.491,1.491,0,0,0,1.537-1.527m-3.653,0a2.018,2.018,0,0,1,2.115-2.03,2.012,2.012,0,0,1,2.1,2.03,2.011,2.011,0,0,1-2.1,2.03,2.017,2.017,0,0,1-2.115-2.03" transform="translate(-114.509 335.872)" fill="#fff"/>
      <path id="path240" d="M257.684-152.8v3.97h-.465l-2.382-2.961v2.961h-.568v-3.97h.465l2.382,2.961V-152.8h.568" transform="translate(-118.985 335.832)" fill="#fff"/>
      <path id="path242" d="M263.215-152.31h-1.361v-.494h3.285v.494h-1.361v3.477h-.562v-3.477" transform="translate(-122.535 335.832)" fill="#fff"/>
      <path id="path244" d="M269.191-148.833h.568V-152.8h-.568Z" transform="translate(-125.968 335.832)" fill="#fff"/>
      <path id="path246" d="M275.912-152.8v3.97h-.465l-2.382-2.961v2.961H272.5v-3.97h.465l2.382,2.961V-152.8h.567" transform="translate(-127.516 335.832)" fill="#fff"/>
      <path id="path248" d="M281.1-150.546V-152.8h.568v2.235c0,.879.4,1.276,1.117,1.276s1.123-.4,1.123-1.276V-152.8h.551v2.257a1.558,1.558,0,0,1-1.679,1.758,1.561,1.561,0,0,1-1.679-1.758" transform="translate(-131.539 335.832)" fill="#fff"/>
      <path id="path250" d="M292.478-149.326v.493H289.6v-3.97h2.8v.494h-2.235v1.219h1.991v.482h-1.991v1.283h2.314" transform="translate(-135.517 335.832)" fill="#fff"/>
      <path id="path252" d="M112.767-250.224h0v-71.159l0,71.16" transform="translate(-52.769 414.719)" fill="#b0b5b5"/>
      <path id="path254" d="M119.9-250.023q-3.554,0-7.133-.2l0-71.159H263.1c-12.085,12.108-34.044,31.943-61.851,47.632v-.1a.986.986,0,0,0-.979.531v-.511h-.338v.819q-.493.273-.987.546v-1.364h-.353v1.371a1.414,1.414,0,0,1-.013.194c-.419.229-.836.455-1.257.682a.759.759,0,0,1-.4-.767v-1.48h-.353v1.515a1.072,1.072,0,0,0,.4.924q-3.743,2.009-7.61,3.9h-1.869A1.482,1.482,0,0,0,186-266.012v.114q-2.223,1.034-4.486,2.023v-2.114a1.482,1.482,0,0,0-1.483-1.483H166.27a1.483,1.483,0,0,0-1.483,1.483v8.49c-1.488.484-2.979.947-4.485,1.39v-9.857a1.483,1.483,0,0,0-1.483-1.483H145.057a1.483,1.483,0,0,0-1.483,1.483V-252.2c0,.017,0,.034,0,.05a135.445,135.445,0,0,1-23.675,2.13m70.5-20.709-.165.263a.9.9,0,0,0,.636.238c.372,0,.651-.163.87-.675l1.306-2.926H192.7l-.983,2.22-.984-2.22h-.368l1.168,2.608-.114.253c-.149.328-.308.438-.541.438a.653.653,0,0,1-.477-.2m4.137-3.12a1.285,1.285,0,0,0-1.332,1.327,1.289,1.289,0,0,0,1.332,1.332,1.286,1.286,0,0,0,1.327-1.332,1.281,1.281,0,0,0-1.327-1.327m-8.963,0a1.258,1.258,0,0,0-1.277,1.327,1.294,1.294,0,0,0,1.371,1.332,1.286,1.286,0,0,0,1.009-.428l-.2-.228a1.031,1.031,0,0,1-.8.343.967.967,0,0,1-1.029-.909h2.186l0-.109a1.245,1.245,0,0,0-1.267-1.327m-3.343.02v.3h.467v1.581a.692.692,0,0,0,.765.76.84.84,0,0,0,.551-.184l-.124-.253a.583.583,0,0,1-.387.133.418.418,0,0,1-.452-.477v-1.56h.795v-.3h-.795v-.572H182.7v.572h-.467m5.328,0v2.613h.353v-1.332a.846.846,0,0,1,.88-.964l.084,0v-.343a.987.987,0,0,0-.979.531v-.511h-.338m-7.015.3a.73.73,0,0,1,.785.835v1.48h.353v-1.515a1,1,0,0,0-1.073-1.118,1.1,1.1,0,0,0-.993.5v-.482h-.338v2.613h.353v-1.371a.857.857,0,0,1,.915-.944m-4.515-1.163v3.478h2.459v-.318H176.4v-1.293h1.8v-.313h-1.8v-1.236h2.017v-.319h-2.385m18.331-33.96a14.57,14.57,0,0,0-14.57,14.57,14.57,14.57,0,0,0,14.57,14.57,14.57,14.57,0,0,0,14.57-14.57,14.571,14.571,0,0,0-14.57-14.57m.177,37.149a.956.956,0,0,1-.974-1.018.957.957,0,0,1,.974-1.019.953.953,0,0,1,.968,1.019.953.953,0,0,1-.968,1.018m-8.035-1.173h-1.853a.907.907,0,0,1,.924-.869.908.908,0,0,1,.929.869" transform="translate(-52.769 414.719)" fill="#23cd8d"/>
      <path id="path256" d="M253.316-268.323a14.57,14.57,0,0,1-14.57-14.57,14.57,14.57,0,0,1,14.57-14.57,14.571,14.571,0,0,1,14.57,14.57,14.57,14.57,0,0,1-14.57,14.57m-6.194-15.783a.792.792,0,0,0-.792.792v7.161a.793.793,0,0,0,.792.792H259.51a.793.793,0,0,0,.792-.792v-7.161a.792.792,0,0,0-.792-.792H247.123m5.118-4.763h2.152a2.4,2.4,0,0,1,2.4,2.4v1.364h1.554v-1.364a3.958,3.958,0,0,0-3.953-3.953H252.24a3.957,3.957,0,0,0-3.953,3.953v1.364h1.554v-1.364a2.4,2.4,0,0,1,2.4-2.4m1.524,11.018h-.9v-1.408a.869.869,0,0,1-.435-.744.883.883,0,0,1,.883-.884.884.884,0,0,1,.884.884.87.87,0,0,1-.436.744v1.408" transform="translate(-111.722 403.526)" fill="#99b6e4" opacity="0.56"/>
      <path id="path258" d="M266.737-278.915h-1.554v-1.364a2.4,2.4,0,0,0-2.4-2.4h-2.152a2.4,2.4,0,0,0-2.4,2.4v1.364h-1.554v-1.364a3.957,3.957,0,0,1,3.953-3.953h2.152a3.958,3.958,0,0,1,3.953,3.953v1.364" transform="translate(-120.113 397.335)" fill="#fff"/>
      <path id="path260" d="M266.181-263.614H253.794a.793.793,0,0,1-.792-.792v-7.161a.792.792,0,0,1,.792-.792h12.387a.792.792,0,0,1,.792.792v7.161a.793.793,0,0,1-.792.792m-6.194-5.526a.883.883,0,0,0-.883.884.869.869,0,0,0,.435.744v1.408h.9v-1.408a.87.87,0,0,0,.436-.744.884.884,0,0,0-.884-.884" transform="translate(-118.393 391.778)" fill="#fff"/>
      <path id="path262" d="M170.67-204.715c0-.016,0-.033,0-.05v-13.762a1.483,1.483,0,0,1,1.483-1.483h13.762a1.483,1.483,0,0,1,1.483,1.483v9.857a154.89,154.89,0,0,1-16.727,3.956m5.7-3.617-.49,1.006a4.346,4.346,0,0,0,2.245.529c2.529,0,4.271-1.651,4.271-4.735,0-2.877-1.367-4.5-3.793-4.5a2.911,2.911,0,0,0-3.187,2.852,2.78,2.78,0,0,0,3.084,2.735,3.013,3.013,0,0,0,2.606-1.187v.322c0,2.258-1.161,3.407-2.993,3.407a3.183,3.183,0,0,1-1.742-.426m2.349-3.162c-1.265,0-2.052-.684-2.052-1.742a1.777,1.777,0,0,1,1.987-1.755c1.406,0,2.154.813,2.154,1.742a1.877,1.877,0,0,1-2.09,1.754" transform="translate(-79.865 367.282)" fill="#fff"/>
      <path id="path264" d="M210.539-210.081v-8.49a1.483,1.483,0,0,1,1.483-1.483h13.762a1.482,1.482,0,0,1,1.483,1.483v2.114q-2.632,1.149-5.313,2.227a3.366,3.366,0,0,0-3.046-1.824c-2.057,0-3.6,1.585-3.687,4.376q-2.323.829-4.683,1.6m6-2.074c.186-1.832,1.1-2.751,2.365-2.751a2.076,2.076,0,0,1,1.891,1.135q-2.115.832-4.256,1.616" transform="translate(-98.522 367.302)" fill="#fff"/>
      <path id="path266" d="M250.411-218.5v-.114a1.482,1.482,0,0,1,1.482-1.483h1.869c-1.112.541-2.225,1.073-3.351,1.6" transform="translate(-117.18 367.323)" fill="#fff"/>
      <path id="path268" d="M182.295-203.3a4.346,4.346,0,0,1-2.245-.529l.49-1.006a3.183,3.183,0,0,0,1.742.426c1.832,0,2.993-1.149,2.993-3.407v-.322a3.013,3.013,0,0,1-2.606,1.187,2.78,2.78,0,0,1-3.084-2.735,2.911,2.911,0,0,1,3.187-2.852c2.426,0,3.793,1.626,3.793,4.5,0,3.084-1.742,4.735-4.271,4.735m.529-8.194a1.777,1.777,0,0,0-1.987,1.755c0,1.058.787,1.742,2.052,1.742a1.877,1.877,0,0,0,2.09-1.754c0-.929-.748-1.742-2.154-1.742" transform="translate(-84.037 363.785)" fill="#304047"/>
      <path id="path270" d="M219.341-208.161c.084-2.791,1.629-4.376,3.687-4.376a3.366,3.366,0,0,1,3.046,1.824l-1.156.46a2.076,2.076,0,0,0-1.891-1.135c-1.263,0-2.179.919-2.365,2.751-.441.161-.879.319-1.322.477" transform="translate(-102.641 363.784)" fill="#304047"/>
      <path id="path272" d="M234.138-230.157h-2.459v-3.478h2.385v.319h-2.017v1.236h1.8v.313h-1.8v1.293h2.091v.318" transform="translate(-108.414 373.658)" fill="#bdd0ee"/>
      <path id="path274" d="M240.187-229.414h-.353v-1.48a.73.73,0,0,0-.785-.835.857.857,0,0,0-.915.944v1.371h-.353v-2.613h.338v.482a1.1,1.1,0,0,1,.993-.5,1,1,0,0,1,1.073,1.118v1.515" transform="translate(-111.27 372.914)" fill="#bdd0ee"/>
      <path id="path276" d="M244.568-229.875a.692.692,0,0,1-.765-.76v-1.581h-.467v-.3h.467v-.572h.353v.572h.795v.3h-.795v1.56a.418.418,0,0,0,.452.477.583.583,0,0,0,.387-.133l.124.253a.84.84,0,0,1-.551.184" transform="translate(-113.869 373.4)" fill="#bdd0ee"/>
      <path id="path278" d="M248.589-229.389a1.294,1.294,0,0,1-1.371-1.332,1.258,1.258,0,0,1,1.277-1.327,1.245,1.245,0,0,1,1.267,1.327l0,.109h-2.186a.967.967,0,0,0,1.029.909,1.031,1.031,0,0,0,.8-.343l.2.228a1.286,1.286,0,0,1-1.009.428m-.094-2.355a.907.907,0,0,0-.924.869h1.853a.908.908,0,0,0-.929-.869" transform="translate(-115.686 372.914)" fill="#bdd0ee"/>
      <path id="path280" d="M253.7-229.414h-.353v-2.613h.338v.511a.987.987,0,0,1,.979-.531v.343l-.084,0a.846.846,0,0,0-.88.964v1.332" transform="translate(-118.555 372.914)" fill="#bdd0ee"/>
      <path id="path282" d="M259.016-228.408a.9.9,0,0,1-.636-.238l.165-.263a.653.653,0,0,0,.477.2c.233,0,.392-.11.541-.438l.114-.253-1.168-2.608h.368l.984,2.22.983-2.22h.348l-1.306,2.926c-.219.512-.5.675-.87.675" transform="translate(-120.909 372.897)" fill="#bdd0ee"/>
      <path id="path284" d="M265.294-229.389a1.289,1.289,0,0,1-1.332-1.332,1.285,1.285,0,0,1,1.332-1.327,1.282,1.282,0,0,1,1.327,1.327,1.286,1.286,0,0,1-1.327,1.332m0-2.35a.957.957,0,0,0-.974,1.019.957.957,0,0,0,.974,1.018.953.953,0,0,0,.968-1.018.953.953,0,0,0-.968-1.019" transform="translate(-123.521 372.914)" fill="#bdd0ee"/>
      <path id="path286" d="M270.661-229.57a1.073,1.073,0,0,1-.4-.924v-1.515h.353v1.48a.759.759,0,0,0,.4.767l-.358.192m1.615-.875a1.41,1.41,0,0,0,.013-.194v-1.371h.353v1.364l-.366.2" transform="translate(-126.469 372.897)" fill="#bdd0ee"/>
      <path id="path288" d="M276.59-231.209v-.819h.338v.511a.986.986,0,0,1,.979-.531v.1c-.437.246-.878.493-1.317.737" transform="translate(-129.431 372.914)" fill="#bdd0ee"/>
      <path id="path290" d="M339.327-112.551H238.29c.048-.174.1-.349.148-.525h100.89v.525" transform="translate(-111.508 317.241)" fill="#b0b5b5"/>
      <path id="path292" d="M339.457-173.724H238.567a126.487,126.487,0,0,1,4.44-12.956H273a5.894,5.894,0,0,0,5.894-5.894A5.893,5.893,0,0,0,273-198.468H248.616a92.455,92.455,0,0,1,5.071-8.142l.107.177a1.333,1.333,0,0,1,.87-.308c.487,0,.74.243.74.69v.16h-.829c-.751,0-1.009.338-1.009.741,0,.451.362.76.954.76a.981.981,0,0,0,.9-.433v.408h.338v-1.62a.928.928,0,0,0-1.058-1.013,1.78,1.78,0,0,0-.847.2,80.425,80.425,0,0,1,5.6-7.093h.66a1.482,1.482,0,0,0,1.483-1.483v-.831q1.666-1.724,3.468-3.355.508-.458,1.017-.9v5.067a1.483,1.483,0,0,0,1.483,1.483h13.762a1.483,1.483,0,0,0,1.483-1.483v-13.763a1.483,1.483,0,0,0-1.483-1.483h-1.1a91.234,91.234,0,0,1,44.806-11.99q-.414,1.106-.849,2.2c-.3.753-.616,1.49-.929,2.231-.152.375-.324.734-.488,1.1l-.248.547-.121.267-.025.06a3.21,3.21,0,0,1-.939.953,11.357,11.357,0,0,1-1.767,1.042,33.047,33.047,0,0,1-4.329,1.692c-1.522.5-3.094.94-4.686,1.328-1.581.413-3.215.77-4.795,1.113l.287,3.094a57.882,57.882,0,0,0,10.35-.985,31.973,31.973,0,0,0,5.234-1.434,16.688,16.688,0,0,0,2.689-1.288,8.464,8.464,0,0,0,2.7-2.47c.1-.148.2-.32.294-.482l.162-.3.315-.58c.208-.387.426-.77.619-1.161q.605-1.166,1.151-2.354,1.034-2.2,1.905-4.448l.093,0,1.031.758.671-.654c2.213.155,4.253.37,6.09.613v68.1M256.8-204.1l-.179.268a1.822,1.822,0,0,0,1.217.4,1.146,1.146,0,0,0,1.307-1.307v-2.295h-.338v.5a1.181,1.181,0,0,0-1.034-.521,1.242,1.242,0,0,0-1.312,1.262,1.25,1.25,0,0,0,1.312,1.272,1.177,1.177,0,0,0,1.019-.507v.333c0,.646-.3.948-.964.948a1.557,1.557,0,0,1-1.029-.358m4.122-1.793c-.751,0-1.009.338-1.009.741,0,.451.363.76.953.76a.982.982,0,0,0,.9-.433v.408h.338v-1.62a.929.929,0,0,0-1.059-1.013,1.655,1.655,0,0,0-1.063.353l.159.263a1.331,1.331,0,0,1,.869-.308c.487,0,.741.243.741.69v.16h-.829m4.742-.84a.73.73,0,0,1,.785.835v1.481h.353v-1.515a1,1,0,0,0-1.073-1.118,1.1,1.1,0,0,0-.994.5v-.482H264.4v2.613h.353v-1.371a.857.857,0,0,1,.914-.944m-2.6-.3v2.613h.353v-2.613h-.353m.179-1.074a.254.254,0,0,0-.258.249.255.255,0,0,0,.258.253.253.253,0,0,0,.258-.258.251.251,0,0,0-.258-.244m25.539-22.611a1.484,1.484,0,0,0-1.483,1.483v13.763a1.482,1.482,0,0,0,1.483,1.482H302.54a1.482,1.482,0,0,0,1.483-1.482V-229.23a1.483,1.483,0,0,0-1.483-1.483H288.778" transform="translate(-111.638 377.89)" fill="#23cd8d"/>
      <path id="path294" d="M278.484-190.693h-.66q1.043-1.175,2.142-2.314v.831a1.482,1.482,0,0,1-1.483,1.483" transform="translate(-130.008 354.646)" fill="#fff"/>
      <path id="path296" d="M305.526-203.415H291.764a1.483,1.483,0,0,1-1.483-1.483v-5.067q3.021-2.649,6.1-4.906H298.4v7.91h1.278v-9.032h-1.735q3.229-2.27,6.49-4.15h1.1a1.483,1.483,0,0,1,1.483,1.483V-204.9a1.483,1.483,0,0,1-1.483,1.483" transform="translate(-135.837 367.344)" fill="#fff"/>
      <path id="path298" d="M345.4-203.461H331.635a1.482,1.482,0,0,1-1.483-1.482v-13.763a1.484,1.484,0,0,1,1.483-1.483H345.4a1.483,1.483,0,0,1,1.483,1.483v13.763a1.482,1.482,0,0,1-1.483,1.482m-6.876-12.658c-2.116,0-3.69,1.678-3.69,4.619s1.574,4.62,3.69,4.62,3.678-1.677,3.678-4.62-1.575-4.619-3.678-4.619m0,8.09c-1.419,0-2.4-1.161-2.4-3.471s.98-3.47,2.4-3.47,2.387,1.161,2.387,3.47-.98,3.471-2.387,3.471" transform="translate(-154.495 367.365)" fill="#fff"/>
      <path id="path300" d="M342.636-203.3c-2.116,0-3.69-1.677-3.69-4.62s1.574-4.619,3.69-4.619,3.678,1.678,3.678,4.619-1.575,4.62-3.678,4.62m0-8.09c-1.419,0-2.4,1.161-2.4,3.47s.98,3.471,2.4,3.471,2.387-1.161,2.387-3.471-.98-3.47-2.387-3.47" transform="translate(-158.61 363.785)" fill="#304047"/>
      <path id="path302" d="M305.042-203.311h-1.278v-7.91h-2.018q.779-.574,1.561-1.122h1.735v9.032" transform="translate(-141.202 363.694)" fill="#304047"/>
      <path id="path304" d="M274.417-173.06c-.418,0-.661-.188-.661-.492,0-.268.164-.467.67-.467h.82v.427a.835.835,0,0,1-.829.531m-6.346,0c-.418,0-.661-.188-.661-.492,0-.268.164-.467.67-.467h.82v.427a.835.835,0,0,1-.829.531m3.233-.158a.934.934,0,0,1-.989-.959.93.93,0,0,1,.989-.954.935.935,0,0,1,.994.954.939.939,0,0,1-.994.959" transform="translate(-125.135 346.281)" fill="#537bc6"/>
      <path id="path306" d="M267.711-173.052c-.592,0-.954-.309-.954-.76,0-.4.258-.741,1.009-.741h.829v-.16c0-.447-.253-.69-.74-.69a1.332,1.332,0,0,0-.87.308l-.107-.177.165-.234a1.78,1.78,0,0,1,.847-.2.928.928,0,0,1,1.058,1.013v1.62h-.338v-.408a.981.981,0,0,1-.9.433m.064-1.237c-.507,0-.67.2-.67.467,0,.3.243.492.661.492a.835.835,0,0,0,.829-.531v-.427h-.82" transform="translate(-124.829 346.551)" fill="#bdd0ee"/>
      <path id="path308" d="M273.574-172.089a1.822,1.822,0,0,1-1.217-.4l.179-.268a1.557,1.557,0,0,0,1.029.358c.66,0,.964-.3.964-.948v-.333a1.176,1.176,0,0,1-1.019.507,1.25,1.25,0,0,1-1.312-1.272,1.242,1.242,0,0,1,1.312-1.262,1.181,1.181,0,0,1,1.034.521v-.5h.338v2.295a1.146,1.146,0,0,1-1.307,1.307m-.03-3.314a.93.93,0,0,0-.989.954.934.934,0,0,0,.989.959.939.939,0,0,0,.994-.959.935.935,0,0,0-.994-.954" transform="translate(-127.375 346.551)" fill="#bdd0ee"/>
      <path id="path310" d="M279.638-173.052c-.591,0-.953-.309-.953-.76,0-.4.258-.741,1.009-.741h.829v-.16c0-.447-.253-.69-.741-.69a1.33,1.33,0,0,0-.869.308l-.159-.263a1.654,1.654,0,0,1,1.063-.353.929.929,0,0,1,1.059,1.013v1.62h-.338v-.408a.982.982,0,0,1-.9.433m.065-1.237c-.507,0-.67.2-.67.467,0,.3.243.492.661.492a.835.835,0,0,0,.829-.531v-.427h-.82" transform="translate(-130.411 346.551)" fill="#bdd0ee"/>
      <path id="path312" d="M284.885-174h-.353v-2.613h.353V-174m-.174-3.185a.255.255,0,0,1-.258-.253.254.254,0,0,1,.258-.249.251.251,0,0,1,.258.244.253.253,0,0,1-.258.258" transform="translate(-133.11 347.479)" fill="#bdd0ee"/>
      <path id="path314" d="M289.518-173.077h-.353v-1.481a.73.73,0,0,0-.785-.835.857.857,0,0,0-.914.944v1.371h-.353v-2.613h.338v.482a1.1,1.1,0,0,1,.994-.5,1,1,0,0,1,1.073,1.118v1.515" transform="translate(-134.355 346.551)" fill="#bdd0ee"/>
      <path id="path316" d="M276.905-147.795H246.913q.877-2.159,1.874-4.359a1.967,1.967,0,0,0,1.17-1.837,2.146,2.146,0,0,0-.063-.521c.817-1.688,1.693-3.383,2.628-5.071h24.384a5.893,5.893,0,0,1,5.894,5.894,5.894,5.894,0,0,1-5.894,5.894M265.1-155.976v2.257a1.561,1.561,0,0,0,1.679,1.758,1.558,1.558,0,0,0,1.679-1.758v-2.257h-.55v2.235c0,.879-.408,1.276-1.123,1.276s-1.117-.4-1.117-1.276v-2.235H265.1m4.523,0v3.97H272.5v-.493H270.19v-1.283h1.991v-.482H270.19v-1.219h2.235v-.494h-2.8m-8.53,1.009,2.382,2.961h.465v-3.97h-.567v2.961l-2.382-2.961h-.465v3.97h.568v-2.961m-2.327-1.009v3.97h.568v-3.97h-.568m-3.9,0v.494h1.361v3.477h.562v-3.477h1.361v-.494h-3.284m-3.468,1.009,2.382,2.961h.465v-3.97h-.568v2.961l-2.382-2.961h-.465v3.97h.568v-2.961" transform="translate(-115.543 339.004)" fill="#99b6e4" opacity="0.5"/>
      <path id="path318" d="M250.435-147.694q.535-1.177,1.107-2.358a2.146,2.146,0,0,1,.063.521,1.967,1.967,0,0,1-1.17,1.837" transform="translate(-117.192 334.544)" fill="#fff"/>
      <path id="path320" d="M257.684-148.833h-.465l-2.382-2.961v2.961h-.568v-3.97h.465l2.382,2.961V-152.8h.568v3.97" transform="translate(-118.985 335.832)" fill="#fff"/>
      <path id="path322" d="M263.777-148.833h-.562v-3.477h-1.361v-.494h3.285v.494h-1.361v3.477" transform="translate(-122.535 335.832)" fill="#fff"/>
      <path id="path324" d="M269.191-148.833h.568V-152.8h-.568Z" transform="translate(-125.968 335.832)" fill="#fff"/>
      <path id="path326" d="M275.912-148.833h-.465l-2.382-2.961v2.961H272.5v-3.97h.465l2.382,2.961V-152.8h.567v3.97" transform="translate(-127.516 335.832)" fill="#fff"/>
      <path id="path328" d="M282.774-148.788a1.561,1.561,0,0,1-1.679-1.758V-152.8h.568v2.235c0,.879.4,1.276,1.117,1.276s1.123-.4,1.123-1.276V-152.8h.551v2.257a1.558,1.558,0,0,1-1.679,1.758" transform="translate(-131.539 335.832)" fill="#fff"/>
      <path id="path330" d="M292.478-148.833H289.6v-3.97h2.8v.494h-2.235v1.219h1.991v.482h-1.991v1.283h2.314v.493" transform="translate(-135.517 335.832)" fill="#fff"/>
      <path id="path332" d="M468.307-341.961l2.354,10.4,2.354-10.4h-4.708" transform="translate(-219.145 424.348)" fill="#4870c0"/>
      <path id="path334" d="M471.119-329.533l-1.832-8.1h3.665l-1.832,8.1" transform="translate(-219.603 422.322)" fill="#c7d9f2"/>
      <path id="path336" d="M470.546-365.556h-52.71a6.094,6.094,0,0,1-6.094-6.094v-19.561a6.094,6.094,0,0,1,6.094-6.094h52.71a6.1,6.1,0,0,1,6.1,6.094v19.561a6.1,6.1,0,0,1-6.1,6.094" transform="translate(-192.675 450.247)" fill="#4870c0"/>
      <path id="path338" d="M470.546-365.556h-52.71a6.082,6.082,0,0,1-4.69-2.2,6.068,6.068,0,0,1-1.4-3.892v-19.561a6.094,6.094,0,0,1,6.094-6.094h52.71a6.1,6.1,0,0,1,6.1,6.094v19.561a6.1,6.1,0,0,1-6.1,6.094m-15.954-15.772c-1.532,0-2.672,1.215-2.672,3.345s1.139,3.344,2.672,3.344,2.662-1.215,2.662-3.344-1.14-3.345-2.662-3.345m-15.027,0c-1.532,0-2.672,1.215-2.672,3.345s1.14,3.344,2.672,3.344,2.662-1.215,2.662-3.344-1.14-3.345-2.662-3.345m-7.933,5.577-.355.729a3.15,3.15,0,0,0,1.626.383c1.83,0,3.092-1.2,3.092-3.429,0-2.083-.99-3.26-2.746-3.26a2.107,2.107,0,0,0-2.308,2.065,2.013,2.013,0,0,0,2.233,1.98,2.181,2.181,0,0,0,1.886-.859v.233c0,1.634-.841,2.466-2.167,2.466a2.3,2.3,0,0,1-1.261-.308m16.457-5.5v.812h1.476v5.727h.924v-6.539h-2.4m-3,.756c.915,0,1.392.411,1.392,1.084,0,.411-.131.822-.822,1.495l-2.662,2.569v.636h4.7v-.813H444.34l2-1.925a2.648,2.648,0,0,0,1.074-2.055c0-1.121-.878-1.822-2.242-1.822a3.015,3.015,0,0,0-2.391.99l.635.551a2.055,2.055,0,0,1,1.672-.71m8.177-7.8a2.008,2.008,0,0,0-2.1,2.03,2.007,2.007,0,0,0,2.1,2.031,1.97,1.97,0,0,0,1.515-.624l-.369-.358a1.476,1.476,0,0,1-1.117.477,1.5,1.5,0,0,1-1.56-1.526,1.5,1.5,0,0,1,1.56-1.525,1.47,1.47,0,0,1,1.117.47l.369-.358a1.963,1.963,0,0,0-1.509-.618m-13.654,0a2.018,2.018,0,0,0-2.115,2.03,2.018,2.018,0,0,0,2.115,2.031,2.012,2.012,0,0,0,2.1-2.031,2.012,2.012,0,0,0-2.1-2.03m24.477.981a1.472,1.472,0,0,0-1.508,1.532,1.5,1.5,0,0,0,1.616,1.537,1.507,1.507,0,0,0,1.185-.488l-.3-.351a1.124,1.124,0,0,1-.868.362,1.019,1.019,0,0,1-1.09-.879h2.439l.011-.165a1.45,1.45,0,0,0-1.486-1.549m-3.858,0a1.459,1.459,0,0,0-1.52,1.532,1.464,1.464,0,0,0,1.52,1.537,1.269,1.269,0,0,0,1.072-.511v.477h.522v-4.209h-.545v1.656a1.281,1.281,0,0,0-1.049-.482m-3.558,0a1.5,1.5,0,0,0-1.566,1.532,1.5,1.5,0,0,0,1.566,1.537,1.5,1.5,0,0,0,1.559-1.537,1.491,1.491,0,0,0-1.559-1.532m-26.656.028v1.73a1.182,1.182,0,0,0,1.293,1.31,1.222,1.222,0,0,0,1.021-.488v.454h.516v-3.006H432.3v1.554a.884.884,0,0,1-.93,1c-.516,0-.811-.3-.811-.885v-1.668h-.545m-2.288-.028a1.5,1.5,0,0,0-1.566,1.532,1.5,1.5,0,0,0,1.566,1.537,1.5,1.5,0,0,0,1.56-1.537,1.491,1.491,0,0,0-1.56-1.532m18.132-.936v3.971h.568v-1.2h.982c1.032,0,1.656-.522,1.656-1.384s-.624-1.384-1.656-1.384h-1.549m-3.9,0v.493h1.361v3.477h.562v-3.477h1.361v-.493h-3.285m-8.07.964v3.006h.545v-1.5a.9.9,0,0,1,.947-1.015l.125,0v-.527a1.146,1.146,0,0,0-1.095.533v-.505h-.522m-11.316-.964,1.576,2.586v1.384h.562v-1.373l1.577-2.6h-.562l-1.276,2.093-1.271-2.093h-.607m32.022,12.781c-1.028,0-1.738-.841-1.738-2.513s.71-2.513,1.738-2.513,1.728.841,1.728,2.513-.71,2.513-1.728,2.513m-15.027,0c-1.028,0-1.738-.841-1.738-2.513s.71-2.513,1.738-2.513,1.728.841,1.728,2.513-.71,2.513-1.728,2.513m-6.233-2.569c-.915,0-1.485-.5-1.485-1.261a1.286,1.286,0,0,1,1.438-1.271c1.019,0,1.561.589,1.561,1.261a1.361,1.361,0,0,1-1.514,1.271m26.943-6.684a1,1,0,0,1-1.015-1.061.99.99,0,0,1,1.015-1.055.989.989,0,0,1,1.009,1.055.994.994,0,0,1-1.009,1.061m-3.6,0a1,1,0,0,1-1.015-1.061.99.99,0,0,1,1.015-1.055.986.986,0,0,1,1.01,1.055.99.99,0,0,1-1.01,1.061m-28.943,0a1,1,0,0,1-1.015-1.061.99.99,0,0,1,1.015-1.055.986.986,0,0,1,1.009,1.055.99.99,0,0,1-1.009,1.061m11.883-.017a1.493,1.493,0,0,1-1.548-1.526,1.493,1.493,0,0,1,1.548-1.525,1.49,1.49,0,0,1,1.537,1.525,1.49,1.49,0,0,1-1.537,1.526m7.781-1.236h-.965v-1.781h.965c.726,0,1.106.323,1.106.891s-.38.89-1.106.89m17.66-.017h-1.929a.937.937,0,0,1,.964-.862.937.937,0,0,1,.965.862" transform="translate(-192.675 450.247)" fill="#23cd8d"/>
      <path id="path340" d="M434.23-376.317h-.562V-377.7l-1.576-2.586h.607l1.271,2.093,1.276-2.093h.562l-1.577,2.6v1.373" transform="translate(-202.198 442.283)" fill="#fff"/>
      <path id="path342" d="M440.409-375.46A1.5,1.5,0,0,1,438.843-377a1.5,1.5,0,0,1,1.566-1.532,1.491,1.491,0,0,1,1.56,1.532,1.5,1.5,0,0,1-1.56,1.537m0-2.592A.99.99,0,0,0,439.393-377a1,1,0,0,0,1.015,1.061A.99.99,0,0,0,441.418-377a.986.986,0,0,0-1.009-1.055" transform="translate(-205.357 441.46)" fill="#fff"/>
      <path id="path344" d="M447.379-375.435a1.182,1.182,0,0,1-1.293-1.31v-1.73h.545v1.668c0,.59.3.885.811.885a.884.884,0,0,0,.93-1v-1.554h.545v3.006H448.4v-.454a1.222,1.222,0,0,1-1.021.488" transform="translate(-208.746 441.435)" fill="#fff"/>
      <path id="path346" d="M453.905-375.494h-.545V-378.5h.522v.505a1.146,1.146,0,0,1,1.095-.533V-378l-.125,0a.9.9,0,0,0-.947,1.015v1.5" transform="translate(-212.15 441.46)" fill="#fff"/>
      <path id="path348" d="M462.26-376.311a2.018,2.018,0,0,1-2.115-2.031,2.018,2.018,0,0,1,2.115-2.03,2.012,2.012,0,0,1,2.1,2.03,2.012,2.012,0,0,1-2.1,2.031m0-3.556a1.493,1.493,0,0,0-1.548,1.525,1.493,1.493,0,0,0,1.548,1.526,1.49,1.49,0,0,0,1.537-1.526,1.49,1.49,0,0,0-1.537-1.525" transform="translate(-215.325 442.323)" fill="#fff"/>
      <path id="path350" d="M470.451-376.317h-.562v-3.477h-1.361v-.493h3.285v.493h-1.361v3.477" transform="translate(-219.248 442.283)" fill="#fff"/>
      <path id="path352" d="M476.433-376.317h-.568v-3.97h1.549c1.032,0,1.656.522,1.656,1.384s-.624,1.384-1.656,1.384h-.982v1.2m0-3.477v1.781h.965c.726,0,1.106-.323,1.106-.89s-.38-.891-1.106-.891h-.965" transform="translate(-222.682 442.283)" fill="#fff"/>
      <path id="path354" d="M487.928-376.311a2.007,2.007,0,0,1-2.1-2.031,2.008,2.008,0,0,1,2.1-2.03,1.964,1.964,0,0,1,1.509.618l-.369.358a1.47,1.47,0,0,0-1.117-.47,1.5,1.5,0,0,0-1.56,1.525,1.5,1.5,0,0,0,1.56,1.526,1.476,1.476,0,0,0,1.117-.477l.369.358a1.97,1.97,0,0,1-1.515.624" transform="translate(-227.345 442.323)" fill="#fff"/>
      <path id="path356" d="M494.808-375.46A1.5,1.5,0,0,1,493.243-377a1.5,1.5,0,0,1,1.566-1.532A1.491,1.491,0,0,1,496.368-377a1.5,1.5,0,0,1-1.559,1.537m0-2.592A.99.99,0,0,0,493.793-377a1,1,0,0,0,1.015,1.061A.99.99,0,0,0,495.818-377a.986.986,0,0,0-1.009-1.055" transform="translate(-230.814 441.46)" fill="#fff"/>
      <path id="path358" d="M501.536-376.492a1.464,1.464,0,0,1-1.52-1.537,1.459,1.459,0,0,1,1.52-1.532,1.281,1.281,0,0,1,1.049.482v-1.656h.545v4.209h-.522V-377a1.269,1.269,0,0,1-1.072.511m.045-2.592a.99.99,0,0,0-1.015,1.055,1,1,0,0,0,1.015,1.061.994.994,0,0,0,1.009-1.061.989.989,0,0,0-1.009-1.055" transform="translate(-233.983 442.493)" fill="#fff"/>
      <path id="path360" d="M508.907-375.46A1.5,1.5,0,0,1,507.291-377a1.472,1.472,0,0,1,1.508-1.532,1.45,1.45,0,0,1,1.486,1.549l-.011.165h-2.439a1.019,1.019,0,0,0,1.09.879,1.124,1.124,0,0,0,.868-.362l.3.351a1.507,1.507,0,0,1-1.185.488m-.108-2.609a.937.937,0,0,0-.964.862h1.929a.937.937,0,0,0-.965-.862" transform="translate(-237.387 441.46)" fill="#fff"/>
      <path id="path362" d="M449.786-360.586a3.15,3.15,0,0,1-1.626-.383l.355-.729a2.3,2.3,0,0,0,1.261.308c1.326,0,2.166-.831,2.166-2.466v-.233a2.181,2.181,0,0,1-1.886.859,2.013,2.013,0,0,1-2.233-1.98,2.107,2.107,0,0,1,2.308-2.065c1.756,0,2.746,1.177,2.746,3.26,0,2.233-1.261,3.429-3.092,3.429m.382-5.932a1.286,1.286,0,0,0-1.438,1.271c0,.766.57,1.261,1.485,1.261a1.361,1.361,0,0,0,1.514-1.271c0-.672-.542-1.261-1.561-1.261" transform="translate(-209.56 436.194)" fill="#fff"/>
      <path id="path364" d="M461.685-360.586c-1.532,0-2.672-1.215-2.672-3.344s1.14-3.345,2.672-3.345,2.662,1.215,2.662,3.345-1.14,3.344-2.662,3.344m0-5.857c-1.028,0-1.738.841-1.738,2.513s.71,2.513,1.738,2.513,1.728-.841,1.728-2.513-.71-2.513-1.728-2.513" transform="translate(-214.795 436.194)" fill="#fff"/>
      <path id="path366" d="M474.993-360.661h-4.7v-.636l2.662-2.569c.692-.673.822-1.084.822-1.495,0-.672-.477-1.084-1.392-1.084a2.055,2.055,0,0,0-1.672.71l-.635-.551a3.015,3.015,0,0,1,2.391-.99c1.363,0,2.242.7,2.242,1.822a2.648,2.648,0,0,1-1.074,2.055l-2,1.925h3.354v.813" transform="translate(-219.975 436.194)" fill="#fff"/>
      <path id="path368" d="M482.457-360.595h-.924v-5.727h-1.476v-.812h2.4v6.539" transform="translate(-224.643 436.128)" fill="#fff"/>
      <path id="path370" d="M489.929-360.586c-1.532,0-2.672-1.215-2.672-3.344s1.139-3.345,2.672-3.345,2.662,1.215,2.662,3.345-1.14,3.344-2.662,3.344m0-5.857c-1.028,0-1.738.841-1.738,2.513s.71,2.513,1.738,2.513,1.728-.841,1.728-2.513-.71-2.513-1.728-2.513" transform="translate(-228.013 436.194)" fill="#fff"/>
      <path id="path372" d="M458.466-290.118l.731.482.805.514c.543.341,1.1.665,1.666.983,1.129.634,2.274,1.241,3.448,1.777a36.881,36.881,0,0,0,7.213,2.493l.115.028.045.013c-.036,0-.079,0-.176,0a1.919,1.919,0,0,0-.878.291,1.883,1.883,0,0,0-.721.8.7.7,0,0,0-.086.332c.02.045.046-.143.036-.352a6.287,6.287,0,0,0-.079-.754,27.886,27.886,0,0,0-.948-3.674c-.81-2.54-1.773-5.152-2.73-7.717l2.737-1.47a56.664,56.664,0,0,1,4.388,7.422,26.912,26.912,0,0,1,1.689,4.259,11.954,11.954,0,0,1,.289,1.3,6.4,6.4,0,0,1,.062,1.734,4.12,4.12,0,0,1-.367,1.334,3.669,3.669,0,0,1-1.4,1.578,3.818,3.818,0,0,1-1.878.546,4.414,4.414,0,0,1-.7-.03l-.212-.028-.142-.021a33.985,33.985,0,0,1-8.743-2.413,41.759,41.759,0,0,1-4.047-1.936c-.651-.369-1.3-.746-1.935-1.146-.318-.2-.638-.4-.953-.619s-.608-.424-.987-.709l3.754-5.025" transform="translate(-212.783 403.013)" fill="#f57473"/>
      <path id="path374" d="M457.186-286.205a14.031,14.031,0,0,1,6.829,2.771l-2.855,8.782s-13.769-12.675-3.974-11.553" transform="translate(-212.295 398.291)" fill="#4870c0"/>
      <path id="path376" d="M463.988-283.218l.026-.079h0l-.026.079m-10.288-.987h0a1.6,1.6,0,0,1,.2-1.185,1.6,1.6,0,0,0-.194,1.186m7.564-.729a14.01,14.01,0,0,0-3.482-1.054,13.93,13.93,0,0,1,3.482,1.054" transform="translate(-212.294 398.156)" fill="#fbfcfc"/>
      <path id="path378" d="M462.331-278.261a8.616,8.616,0,0,0-2.915-1.465c-.176-.2-.355-.389-.535-.578l-.009-.01,0,0a19.55,19.55,0,0,0-5.167-4.021,1.6,1.6,0,0,1,.194-1.186c.322-.47,1.006-.749,2.172-.749a10.089,10.089,0,0,1,1.122.07q.3.035.594.082a14.009,14.009,0,0,1,3.482,1.054,12.735,12.735,0,0,1,2.75,1.638l-.026.079-1.659,5.09" transform="translate(-212.295 398.29)" fill="#23cd8d"/>
      <path id="path380" d="M466.883-270.961a36.382,36.382,0,0,0-2.413-3.006,8.615,8.615,0,0,1,2.915,1.465l-.5,1.542" transform="translate(-217.349 392.531)" fill="#8aa1d3"/>
      <path id="path382" d="M401.305-310.5s-6.6,21.938,7.3,24.881,15.354-7.151,15.354-7.151-11.384-17.284-22.654-17.731" transform="translate(-187.059 409.624)" fill="#1d2a30"/>
      <path id="path384" d="M396.546-298.406l.028-.047a3.06,3.06,0,0,1,.557-.67,1.949,1.949,0,0,1,1.178-.532.171.171,0,0,0,.16-.182.17.17,0,0,0-.181-.16,2.365,2.365,0,0,0-1.521.747,3.29,3.29,0,0,0-.521.681.172.172,0,0,0,.069.232.17.17,0,0,0,.231-.07" transform="translate(-185.414 404.711)" fill="#1d2a30"/>
      <path id="path386" d="M399.776-291.719a10.7,10.7,0,0,1-.572,2.5,1.393,1.393,0,0,0,1.453.026l-.881-2.528" transform="translate(-186.808 400.838)" fill="#f03e4c"/>
      <path id="path388" d="M397.7-294.314c.148.389.478.624.737.526s.35-.494.2-.882-.477-.625-.737-.526-.35.494-.2.882" transform="translate(-186.072 402.476)" fill="#1d2a30"/>
      <path id="path390" d="M397.506-295.228l-.972-.01s.692.552.972.01" transform="translate(-185.558 402.484)" fill="#1d2a30"/>
      <path id="path392" d="M411.306-299.911a.673.673,0,0,1-.1.177c-.064.121-.134.234-.206.355a6.766,6.766,0,0,1-1.632,1.951c-2.149,1.7-3.98,2.206-5.59,1.717-.078-.021-.155-.05-.234-.078l-.007.007c-2.391-.972-4.228-3.831-5.738-7.612a15.01,15.01,0,0,1-1.228-4.668l-.021-.071-.014-.184a5.562,5.562,0,0,1,2.242-4.8,10.766,10.766,0,0,1,2.057-1.27c7.129-3.462,14.025,7.789,10.471,14.479" transform="translate(-185.558 411.749)" fill="#f47272"/>
      <path id="path394" d="M411.348-280.848a4.1,4.1,0,0,1-1.2-.177,7.776,7.776,0,0,0,4.036-2.447c.053-.062.109-.123.166-.18a4.874,4.874,0,0,0-.016,1.048s.228.158.585.461a6.491,6.491,0,0,1-3.576,1.295" transform="translate(-191.931 397.063)" fill="#cd5a58"/>
      <path id="path396" d="M396.459-310.693a8.329,8.329,0,0,0,7.76,5.117s4.511,4.252,7.556,2.9c4.15-1.839,5.005-9.387.773-14.66-5.489-6.839-17.466-1.942-16.089,6.641" transform="translate(-185.472 414.334)" fill="#1d2a30"/>
      <path id="path398" d="M405.144-295.461c-.369-.785-.362-2.4.941-2.8,1.349-.411,3.516,2.366.746,4.525-.4.31-.917-.093-1.687-1.729" transform="translate(-189.489 403.916)" fill="#f47272"/>
      <path id="path400" d="M400.882-320.761s-5.365,1.054-7.1,4.234c-2.03,3.712-2.1,6.6,3.27,8.477,0,0,6.813-6.413,9.749-7.125a32.007,32.007,0,0,1,5.218-.837c-1.949-5.58-8.97-7.1-11.133-4.748" transform="translate(-183.673 414.927)" fill="#1d2a30"/>
      <path id="path402" d="M418-286.5a12.611,12.611,0,0,1,4.65,6.767l11.5-6.708s-9-2.055-10.554-5.538c0,0-6.013.748-5.6,5.479" transform="translate(-195.596 400.96)" fill="#f47272"/>
      <path id="path404" d="M424.982-255.606s-14.868-14.64-16.5-19.236a24.359,24.359,0,0,1,18.783-10.164C439.787-285.415,448.3-261.6,448.3-261.6l-23.321,5.989" transform="translate(-191.149 397.699)" fill="#4870c0"/>
      <path id="path406" d="M431.458-237.926c-.947-.966-2.071-2.127-3.266-3.387v0c1.194,1.263,2.319,2.425,3.266,3.392" transform="translate(-200.373 377.253)" fill="#dee1e0"/>
      <path id="path408" d="M427.431-242.122q-.427-.451-.865-.918s0,0,0-.007c.291.311.58.619.865.92v0" transform="translate(-199.612 378.062)" fill="#b4caec"/>
      <path id="path410" d="M415.982-276.042a25.51,25.51,0,0,1,3.052-2.242h0a25.432,25.432,0,0,0-3.053,2.241" transform="translate(-194.659 394.551)" fill="#a5adad"/>
      <path id="path412" d="M448.246-283.75a10.9,10.9,0,0,0-4.971-1.263c-.106,0-.212,0-.319,0q-.477.016-.941.049v0q.463-.033.939-.049c.1,0,.211,0,.316,0a10.9,10.9,0,0,1,4.976,1.266h0" transform="translate(-206.841 397.701)" fill="#fbfcfc"/>
      <path id="path414" d="M439.686-284.792l0,0q.61-.076,1.24-.121v0q-.63.045-1.238.121" transform="translate(-205.751 397.654)" fill="#f8f8f9"/>
      <path id="path416" d="M453.728-282.636h0" transform="translate(-212.321 396.588)" fill="#fff"/>
      <path id="path418" d="M458.9-278.616a19.549,19.549,0,0,0-5.166-4.019h0a19.55,19.55,0,0,1,5.167,4.021" transform="translate(-212.323 396.588)" fill="#e3edf9"/>
      <path id="path420" d="M438.9-284.63h0c.14-.02.281-.039.422-.056l0,0c-.141.017-.28.036-.419.055" transform="translate(-205.38 397.547)" fill="#a5adad"/>
      <path id="path422" d="M421.72-281.23h0a23.411,23.411,0,0,1,9.136-3.351h0a23.414,23.414,0,0,0-9.141,3.35" transform="translate(-197.344 397.498)" fill="#fbc7c9"/>
      <path id="path424" d="M463.456-275.063l-.009-.01.009.01" transform="translate(-216.871 393.048)" fill="#e3edf9"/>
      <path id="path426" d="M427.393-255.606c-.053-.053-1.145-1.129-2.748-2.766-.947-.967-2.072-2.13-3.266-3.392-.284-.3-.574-.609-.865-.92a9.982,9.982,0,0,0-2.045-6.632c-.432-5.292-3.487-8.731-4.823-8.731h-.014c.377-.369.794-.753,1.25-1.143a25.438,25.438,0,0,1,3.053-2.241,23.413,23.413,0,0,1,9.141-3.35c.139-.019.278-.038.419-.055q.608-.076,1.238-.121.465-.033.941-.049c.106,0,.213,0,.319,0a10.9,10.9,0,0,1,4.971,1.263h0a19.549,19.549,0,0,1,5.166,4.019l0,0,.009.01c6.5,6.846,10.494,17.918,10.566,18.119-.2,0-15.4.04-23.319,5.989" transform="translate(-193.56 397.699)" fill="#23cd8d"/>
      <path id="path428" d="M412.346-308.674a15.629,15.629,0,0,0,9.824,9.638c7.647,2.4,5.728,10.2,13.14,9.285,3.945-.489,7.321-8.522-4.776-15.6-7.052-4.124-4.316-17.669-19.281-16.4,0,0,3.1,9.284,1.092,13.075" transform="translate(-192.447 414.929)" fill="#1d2a30"/>
      <path id="path430" d="M424.18-92.774l-3.543-.806c.533-17.719,3.092-39.183,5.358-55.291.357-2.526.7-4.913,1.036-7.138.162-1.058.313-2.074.463-3.052.734-4.83,1.361-8.648,1.751-11.009.287-1.722.451-2.667.451-2.667l12.749,3.117-.913,3.219-3.016,10.624-.343,1.216-2,7.014-3.39,11.944c.226,18.039-8.6,42.83-8.6,42.83" transform="translate(-196.837 345.16)" fill="#f47272"/>
      <path id="path432" d="M476.949-98.132l-3.634-.182c-2.765-19.069-3.931-42.914-4.432-59.5-.074-2.569-.137-4.971-.187-7.146,0-.112,0-.216,0-.321-.092-4.32-.138-7.754-.158-9.929-.007-1.7-.013-2.637-.013-2.637l13.1.861-.563,5.459-.822,8.022-.163,1.572-.564,5.466L478-141.808c3.351,17.725-1.048,43.676-1.048,43.676" transform="translate(-219.245 347.551)" fill="#f47272"/>
      <path id="path434" d="M474.5-29.55c-.011-.455-5.6-.1-5.6-.1s-3.439,3.5-6.78,4.285-1.474,2.79,2.259,2.79h9.237c2.653,0,1-2.26.885-6.977" transform="translate(-215.434 278.264)" fill="#1d2a30"/>
      <path id="path436" d="M470.829-31.44c-.076.035-.2.108-.2.187.014.251.814.687,1.642,1a2.461,2.461,0,0,0-.959-1.2.6.6,0,0,0-.227-.049.609.609,0,0,0-.258.063Zm-.731,1.427a.311.311,0,0,0-.16.2c-.056.219.013.277.037.3.263.217,1.288-.092,2.111-.441A3.66,3.66,0,0,0,470.1-30.013Zm-.31.719a.538.538,0,0,1-.135-.6.6.6,0,0,1,.3-.378,2.286,2.286,0,0,1,1.254-.138c-.455-.242-.853-.538-.87-.831-.011-.191.112-.349.367-.47a.862.862,0,0,1,.724-.02c.758.315,1.228,1.621,1.248,1.676l-.006.113-.021.031h0l-.05.038a7.011,7.011,0,0,1-2.317.709.774.774,0,0,1-.493-.134" transform="translate(-219.761 279.207)" fill="#1d2a30"/>
      <path id="path438" d="M418.261-29.55c-.011-.455-5.6-.1-5.6-.1s-3.439,3.5-6.78,4.285-1.474,2.79,2.259,2.79h9.237c2.653,0,.995-2.26.884-6.977" transform="translate(-189.118 278.264)" fill="#1d2a30"/>
      <path id="path440" d="M414.594-31.44c-.077.035-.2.108-.2.187.014.251.814.687,1.642,1a2.457,2.457,0,0,0-.959-1.2.593.593,0,0,0-.226-.049.6.6,0,0,0-.257.063Zm-.731,1.427a.312.312,0,0,0-.16.2c-.055.219.014.277.037.3.264.217,1.288-.092,2.112-.441A3.66,3.66,0,0,0,413.864-30.013Zm-.31.719a.536.536,0,0,1-.136-.6.6.6,0,0,1,.3-.378,2.282,2.282,0,0,1,1.253-.138c-.454-.242-.853-.538-.87-.831-.011-.191.113-.349.367-.47a.862.862,0,0,1,.724-.02c.758.315,1.227,1.621,1.247,1.676l-.006.113-.02.031h0l-.05.038a7.022,7.022,0,0,1-2.317.709.772.772,0,0,1-.493-.134" transform="translate(-193.446 279.207)" fill="#1d2a30"/>
      <path id="path442" d="M433.807-199.348l3.026-21.263v-14.4C444.8-241,460.155-241,460.155-241s11.8,16.362,6.067,43.3l-14.81,2.164-.947-5.024-1.857,5.024-14.8-3.812" transform="translate(-203.001 377.103)" fill="#1d2a30"/>
      <path id="path444" d="M451.411-195.536l-.947-5.024c9.023-5.594,9.69-15.714,9.69-15.714-3.843,5.946-6.838,6.854-6.838,6.854l-2.852,8.86-1.857,5.024-1.594-.411-12.091-3.114-.171-.044-.944-.243,3.026-21.263v-14.4C444.8-241,460.155-241,460.155-241s7.642,10.595,7.639,28.769a69.721,69.721,0,0,1-1.572,14.53l-1.781.26-12.012,1.755-1.018.149m-.611-36.025-6.648.635c.272,2,.363,7.627.363,7.627l3.085,2.191,4.265-2.559a15,15,0,0,0-1.065-7.894m12.634-1.678-3.28.68a33.466,33.466,0,0,1,1.964,6.806l2.359,1,1.271-1.579s-.863-4.636-2.315-6.9" transform="translate(-203.001 377.104)" fill="#45555c"/>
      <path id="path446" d="M465.115-178.814h0l2.852-8.86s3-.908,6.838-6.854c0,0-.667,10.12-9.69,15.714" transform="translate(-217.651 355.357)" fill="#364248"/>
      <path id="path448" d="M456.7-212.808,453.614-215s-.091-5.63-.363-7.627l6.648-.635a15,15,0,0,1,1.065,7.894l-4.265,2.559" transform="translate(-212.099 368.803)" fill="#364248"/>
      <path id="path450" d="M487.652-217.932l-2.359-1a33.461,33.461,0,0,0-1.964-6.806l3.28-.68c1.451,2.269,2.315,6.9,2.315,6.9l-1.271,1.579" transform="translate(-226.174 370.279)" fill="#364248"/>
      <path id="path452" d="M433.117-164.993l15.721,4.615-.987,2.11-14.938-4.594.2-2.131" transform="translate(-202.582 341.536)" fill="#1d2a30"/>
      <path id="path454" d="M465.747-159.049l.259,1.939,15.415-1.939.238-2.45-15.912,2.45" transform="translate(-217.947 339.901)" fill="#1d2a30"/>
      <path id="path456" d="M471.162-237.509a55.7,55.7,0,0,1,7.625-.742l-.948-1.57a43.362,43.362,0,0,0-7.435.445l.759,1.867" transform="translate(-220.126 376.56)" fill="#1d2a30"/>
      <path id="path458" d="M442.429-231.791c-2.032.879-3.207,1.544-3.207,1.544l.014,1.937c1.144-.58,2.3-1.105,3.444-1.582l-.251-1.9" transform="translate(-205.534 372.795)" fill="#1d2a30"/>
      <path id="path460" d="M446.832-233.424a62.138,62.138,0,0,1,12.207-3.4l-.708-1.888a53.773,53.773,0,0,0-11.791,3.39l.292,1.9" transform="translate(-208.959 376.032)" fill="#1d2a30"/>
      <path id="path462" d="M362.845-219.761l-4.028-1.617-.68,3.8s3.633,2.206,5.145-.419l-.436-1.765" transform="translate(-167.59 367.922)" fill="#f47272"/>
      <path id="path464" d="M354.521-221.144,353.23-218.2l2.611.626.68-3.8-2,.234" transform="translate(-165.294 367.922)" fill="#f47272"/>
      <path id="path466" d="M479.56-298.945l-.48-4.315-3.671,1.2s-.226,4.244,2.8,4.336l1.35-1.219" transform="translate(-222.466 406.238)" fill="#f47272"/>
      <path id="path468" d="M477.332-306.363l-3.2.253.682,2.6,3.671-1.2-1.151-1.651" transform="translate(-221.869 407.691)" fill="#f47272"/>
      <path id="path470" d="M426-243.645h0l-.64-.694q.322.348.641.687s0,0,0,.007" transform="translate(-199.049 378.666)" fill="#8aa1d3"/>
      <path id="path472" d="M424.58-248.881q-.319-.341-.641-.687c-.536-.582-1.079-1.175-1.619-1.77a16.336,16.336,0,0,0,.265-2.914q0-.646-.051-1.261a9.983,9.983,0,0,1,2.045,6.632" transform="translate(-197.625 383.895)" fill="#15ad74"/>
      <path id="path474" d="M394.063-263.044c-.418,1.764-.914,3.372-1.429,5.034-.528,1.644-1.125,3.264-1.744,4.88s-1.294,3.215-2.036,4.791q-.544,1.188-1.151,2.354c-.193.39-.411.774-.619,1.161l-.315.58-.162.3c-.1.162-.191.334-.294.482a8.464,8.464,0,0,1-2.7,2.47,16.687,16.687,0,0,1-2.689,1.288,31.97,31.97,0,0,1-5.234,1.434,57.882,57.882,0,0,1-10.35.985l-.287-3.094c1.58-.343,3.214-.7,4.795-1.113,1.592-.388,3.164-.824,4.686-1.328a33.046,33.046,0,0,0,4.329-1.692,11.353,11.353,0,0,0,1.767-1.042,3.21,3.21,0,0,0,.939-.953l.025-.06.121-.267.248-.547c.164-.366.336-.724.488-1.1.313-.741.634-1.478.929-2.231.6-1.5,1.163-3.023,1.708-4.556s1.039-3.088,1.522-4.644c.5-1.539.948-3.152,1.37-4.639l6.087,1.514" transform="translate(-170.825 388.128)" fill="#f57473"/>
      <path id="path476" d="M407.853-271.835c-3.473,2.267-5.33,8.172-5.918,11.061l7.208,5.3,3.637-3.545c1.476-8.145-3.614-13.678-4.927-12.82" transform="translate(-188.086 391.574)" fill="#4870c0"/>
      <path id="path478" d="M409.143-255.47l-1.1-.813-5.213-3.836-.89-.655c.588-2.889,2.445-8.794,5.918-11.061a.572.572,0,0,1,.319-.088c1.438,0,4.874,3.992,4.874,9.992a16.339,16.339,0,0,1-.265,2.914h0s0,0,0,0h0l-3.637,3.545" transform="translate(-188.086 391.574)" fill="#23cd8d"/>
      <path id="path480" d="M473.906-303.2l-5.144.548a.52.52,0,0,1-.541-.551l-.31-10.906a.626.626,0,0,1,.507-.662l5.144-.548a.519.519,0,0,1,.541.55l.311,10.906a.628.628,0,0,1-.507.662" transform="translate(-218.959 411.884)" fill="#1d2a30"/>
      <path id="path482" d="M469.5-302.656l1.16-.123-1.156.123h0m4.7-.5a.626.626,0,0,0,.5-.641.174.174,0,0,0,0-.02l-.311-10.906a.527.527,0,0,0-.492-.553.371.371,0,0,0-.049,0l-2.425.258,2.878-.306a.376.376,0,0,1,.049,0,.527.527,0,0,1,.492.553l.311,10.906v.02a.7.7,0,0,1-.145.429.539.539,0,0,1-.362.213l-.444.047" transform="translate(-219.705 411.884)" fill="#a5adad"/>
      <path id="path484" d="M473.056-303.113l-5.144.548a.521.521,0,0,1-.542-.551l-.31-10.906a.628.628,0,0,1,.507-.663l5.143-.547a.519.519,0,0,1,.541.55l.311,10.906a.626.626,0,0,1-.507.662" transform="translate(-218.561 411.841)" fill="#1d2a30"/>
      <path id="path486" d="M467.863-302.563a.528.528,0,0,1-.493-.553l-.31-10.906c0-.007,0-.013,0-.02a.625.625,0,0,1,.508-.643l5.143-.547a.376.376,0,0,1,.049,0,.527.527,0,0,1,.492.553l.311,10.906a.181.181,0,0,1,0,.02.626.626,0,0,1-.5.641h-.008l-.135.014-5.009.533-.049,0m1.055-12.051-1.345.143a.408.408,0,0,0-.329.43l.311,10.906a.343.343,0,0,0,.32.358h.032l5.143-.548a.409.409,0,0,0,.329-.429l-.311-10.906a.343.343,0,0,0-.32-.359h-.031l-1.346.144-.173.414-2.084.222-.2-.375" transform="translate(-218.561 411.842)" fill="#bdc1c2"/>
      <path id="path488" d="M472.878-314.831l-1.346.144-.173.414-2.084.222-.2-.375-1.345.143a.408.408,0,0,0-.329.43l.311,10.906a.337.337,0,0,0,.352.357l5.143-.548a.408.408,0,0,0,.329-.429l-.311-10.906a.339.339,0,0,0-.351-.358" transform="translate(-218.723 411.654)" fill="#23cd8d"/>
      <path id="path490" d="M468.926-308.624a.336.336,0,0,1-.314-.352l-.029-1.052a.4.4,0,0,1,.323-.421l3.784-.4.031,0a.336.336,0,0,1,.314.352l.03,1.053a.4.4,0,0,1-.323.421l-3.784.4h-.031" transform="translate(-219.274 409.792)" fill="#dbe8f7"/>
    </g>
  </g>
</svg>
