<svg width="38" height="40" viewBox="0 0 38 40" fill="none" xmlns="http://www.w3.org/2000/svg">
<path d="M11.7863 3.26802C14.3722 0.386298 18.4064 -0.710723 22.0943 0.464955C25.7823 1.64063 28.4387 4.87056 28.882 8.71796L29.1789 8.72388C32.0641 8.83907 35.3624 10.6518 36.2966 15.7501L37.8076 27.4939C38.3874 31.5725 37.6319 34.7194 35.8749 36.8115C34.1179 38.9036 31.2364 39.9232 27.0898 39.9232H11.0835C7.80794 40.3342 4.54428 39.0773 2.38951 36.5749C0.23475 34.0725 -0.524989 30.6569 0.365678 27.4763L0.409354 27.2719C0.617191 26.5442 1.3357 26.0641 2.10512 26.1753C2.94449 26.2967 3.52661 27.0759 3.40531 27.9158C2.8562 30.2172 3.33739 32.6439 4.72307 34.5612C6.42557 36.1759 8.7254 37.0046 11.0659 36.8467H27.0898C30.27 36.8467 32.4663 36.1786 33.6084 34.7897C34.7504 33.4009 35.2072 31.0803 34.7504 27.9158L33.257 16.2951C32.7299 13.4823 31.0958 11.7242 28.882 11.7242H9.27373C7.16532 11.7242 5.53129 13.4823 4.8812 16.4182L4.45952 19.0025C4.26585 19.7922 3.49436 20.297 2.69372 20.1581C1.89308 20.0192 1.33653 19.2839 1.41989 18.4751L1.85914 15.838C3.01877 10.476 6.44494 8.71796 9.27373 8.71796H25.7545C25.5132 7.16001 24.744 5.73242 23.5758 4.67446C20.8 2.19045 16.5377 2.42651 14.0528 5.20187V5.37767L13.8805 5.53691C13.5155 5.82624 13.0352 5.9384 12.5732 5.83228C12.0342 5.70847 11.6022 5.30638 11.4399 4.77745C11.2776 4.24853 11.4096 3.67314 11.7863 3.26802ZM24.8767 16.6469L25.1044 16.6819C25.3337 16.735 25.5531 16.824 25.7545 16.9456C25.9342 17.0875 26.0937 17.2531 26.2289 17.4379C26.3051 17.5231 26.3594 17.6257 26.387 17.7367C26.4405 17.8414 26.4762 17.9543 26.4925 18.0707C26.5106 18.1873 26.5106 18.3059 26.4925 18.4224C26.4984 18.653 26.4503 18.8818 26.3519 19.0904C26.2638 19.317 26.1185 19.5169 25.9302 19.6706C25.6058 20.0018 25.1637 20.1914 24.7003 20.198C24.4658 20.1886 24.2343 20.1411 24.0151 20.0573C23.6487 19.8395 23.374 19.4959 23.242 19.0904C23.149 18.8805 23.1069 18.6516 23.119 18.4224C23.1011 18.3058 23.1011 18.1873 23.119 18.0707V17.7367L23.2947 17.4379C23.3447 17.3355 23.4167 17.2454 23.5055 17.1741L23.7691 16.9456C23.867 16.8791 23.9734 16.8259 24.0853 16.7874C24.191 16.7365 24.3034 16.7009 24.4192 16.6819C24.6446 16.6294 24.879 16.6294 25.1044 16.6819L24.8767 16.6469ZM13.6494 16.6645L13.8771 16.6995C13.9935 16.7158 14.1063 16.7514 14.2109 16.805C14.3189 16.8401 14.4199 16.8936 14.5096 16.9632C14.6149 17.0239 14.7098 17.1011 14.7908 17.1917C14.8796 17.263 14.9516 17.3531 15.0016 17.4554C15.0699 17.549 15.1287 17.6491 15.1773 17.7543L15.2827 18.0883C15.2923 18.2053 15.2923 18.3229 15.2827 18.4399C15.2827 19.4109 14.4961 20.198 13.5257 20.198C13.0745 20.1823 12.6467 19.9934 12.3309 19.6706C12.1647 19.5049 12.0332 19.3077 11.9444 19.0904C11.8604 18.8778 11.8186 18.6509 11.8214 18.4224C11.8033 18.3059 11.8033 18.1873 11.8214 18.0707C11.8377 17.9543 11.8733 17.8414 11.9268 17.7367C11.9619 17.6287 12.0154 17.5276 12.085 17.4379C12.135 17.3355 12.207 17.2454 12.2958 17.1741C12.3727 17.0912 12.4615 17.0201 12.5593 16.9632C12.649 16.8936 12.7501 16.8401 12.858 16.805C12.9627 16.7514 13.0755 16.7158 13.1919 16.6995C13.4173 16.647 13.6517 16.647 13.8771 16.6995L13.6494 16.6645Z" fill="black"/>
</svg>
