<svg width="34" height="40" viewBox="0 0 34 40" fill="none" xmlns="http://www.w3.org/2000/svg">
<path d="M20.2812 35.1389C20.8361 34.6437 21.6876 34.613 22.2801 35.099C22.9318 35.6335 23.0231 36.5908 22.4841 37.2371C21.1554 38.9604 19.0998 39.9797 16.9125 40L16.4783 39.9817C14.4617 39.8354 12.5952 38.841 11.3586 37.2371L11.2272 37.0537C10.8409 36.4203 10.9702 35.5849 11.5627 35.099C12.2144 34.5644 13.1796 34.655 13.7186 35.3014C13.9553 35.6152 14.2361 35.8937 14.5525 36.1285C15.3983 36.7529 16.4604 37.0168 17.5031 36.8615C18.5458 36.7062 19.4829 36.1446 20.1064 35.3014H20.1242L20.2812 35.1389ZM16.9302 0C23.0697 0 29.9544 4.32908 30.7351 11.2802V14.9054C31.0016 16.2138 31.614 17.4285 32.5095 18.425C32.5626 18.4852 32.6101 18.55 32.6515 18.6186C33.4634 19.8408 33.9291 21.2569 34 22.7189L33.9468 23.0884C34.0079 25.089 33.3402 27.0445 32.0659 28.5966C30.4386 30.3525 28.2139 31.4494 25.82 31.6762C19.9233 32.3235 13.9726 32.3235 8.07598 31.6762C5.71709 31.434 3.53114 30.3375 1.93654 28.5966C0.641232 27.0668 -0.0465058 25.1207 0.00244415 23.1236V22.8773C0.0999994 21.3716 0.602411 19.9193 1.45745 18.6714L1.59941 18.4954C2.48863 17.4947 3.10012 16.2818 3.37381 14.9758V11.3506L3.47193 11.1481C3.77025 10.634 4.35126 10.3333 4.95978 10.3991C5.64436 10.4732 6.19409 10.9928 6.30157 11.6674V15.2926C6.30847 15.3569 6.30847 15.4218 6.30157 15.4861C5.93211 17.3016 5.08763 18.9888 3.8529 20.3784C3.37739 21.1296 3.10824 21.991 3.07216 22.8773V23.2644C3.03277 24.5109 3.44865 25.7295 4.24327 26.696C5.34493 27.8245 6.81813 28.5238 8.39537 28.667C14.1039 29.2829 19.863 29.2829 25.5716 28.667C27.1919 28.5195 28.7011 27.7867 29.8124 26.608C30.568 25.6643 30.9638 24.4866 30.9303 23.282V22.8773C30.8939 21.9881 30.6314 21.1224 30.1673 20.3608C28.8812 18.987 27.987 17.2984 27.5767 15.4685C27.5698 15.4042 27.5698 15.3393 27.5767 15.275V11.6322C27.0621 6.31764 21.7211 3.02684 17.0722 3.02684C15.0957 3.02233 13.1517 3.52554 11.4296 4.48746L11.2187 4.59216C10.7851 4.76726 10.2889 4.73652 9.87663 4.49886C9.39558 4.2216 9.10482 3.70666 9.11782 3.15501C9.13082 2.60336 9.44552 2.10245 9.9391 1.84778C12.0731 0.652143 14.4793 0.0161654 16.9302 0Z" fill="black"/>
</svg>
