<svg width="34" height="40" viewBox="0 0 34 40" fill="none" xmlns="http://www.w3.org/2000/svg">
<path d="M19.5049 0C20.0198 0 20.4158 0.42 20.4158 0.92V7.36C20.4158 11.02 23.4059 14.02 27.0297 14.04C28.5347 14.04 29.7228 14.06 30.6337 14.06L30.971 14.0585C31.5798 14.0539 32.3993 14.04 33.1089 14.04C33.604 14.04 34 14.44 34 14.94V31.02C34 35.98 30.0198 40 25.1089 40H9.34653C4.19802 40 0 35.78 0 30.58V9.02C0 4.06 4 0 8.93069 0H19.5049ZM21.6238 25.8H10.8515C10.0396 25.8 9.36634 26.46 9.36634 27.28C9.36634 28.1 10.0396 28.78 10.8515 28.78H21.6238C22.4356 28.78 23.1089 28.1 23.1089 27.28C23.1089 26.46 22.4356 25.8 21.6238 25.8ZM17.5446 15.8H10.8515C10.0396 15.8 9.36634 16.48 9.36634 17.3C9.36634 18.12 10.0396 18.78 10.8515 18.78H17.5446C18.3564 18.78 19.0297 18.12 19.0297 17.3C19.0297 16.48 18.3564 15.8 17.5446 15.8ZM23.3014 1.812C23.3014 0.95 24.337 0.522 24.9291 1.144C27.0697 3.392 30.8103 7.322 32.9014 9.518C33.4796 10.124 33.0558 11.13 32.2222 11.132C30.5945 11.138 28.6756 11.132 27.2954 11.118C25.1053 11.118 23.3014 9.296 23.3014 7.084V1.812Z" fill="black"/>
</svg>
