<svg width="43" height="43" viewBox="0 0 43 43" fill="none" xmlns="http://www.w3.org/2000/svg">
<path fill-rule="evenodd" clip-rule="evenodd" d="M30.872 0C38.126 0 43 5.092 43 12.67V30.33C43 37.908 38.126 43 30.872 43H12.128C4.874 43 0 37.908 0 30.33V12.67C0 5.092 4.874 0 12.128 0H30.872ZM30.872 3H12.128C6.584 3 3 6.794 3 12.67V30.33C3 36.206 6.584 40 12.128 40H30.872C36.418 40 40 36.206 40 30.33V12.67C40 6.794 36.418 3 30.872 3ZM21.5 12.6546C22.328 12.6546 23 13.3266 23 14.1546V19.98L28.833 19.9804C29.661 19.9804 30.333 20.6524 30.333 21.4804C30.333 22.3084 29.661 22.9804 28.833 22.9804L23 22.98V28.8086C23 29.6366 22.328 30.3086 21.5 30.3086C20.672 30.3086 20 29.6366 20 28.8086V22.98L14.167 22.9804C13.337 22.9804 12.667 22.3084 12.667 21.4804C12.667 20.6524 13.337 19.9804 14.167 19.9804L20 19.98V14.1546C20 13.3266 20.672 12.6546 21.5 12.6546Z" fill="black"/>
</svg>
