<svg width="32" height="40" viewBox="0 0 32 40" fill="none" xmlns="http://www.w3.org/2000/svg">
<path d="M32 32.6602C32 39.238 22.8689 40 16 40C15.3077 40 14.6254 39.99 13.9552 39.97C13.1582 39.95 12.5303 39.288 12.5545 38.494C12.5766 37.7021 13.2649 37.1061 14.0377 37.1001C14.6818 37.1181 15.3358 37.1261 16 37.1261C24.6984 37.1261 29.1099 35.6241 29.1099 32.6602C29.1099 29.6683 24.6984 28.1503 16 28.1503C7.30163 28.1503 2.89006 29.6543 2.89006 32.6202C2.89006 33.5902 3.23623 34.9961 6.24101 36.0081C6.99774 36.2621 7.40226 37.0761 7.14667 37.8261C6.88906 38.576 6.07195 38.986 5.31321 38.726C0.921761 37.2481 0 34.5901 0 32.6202C0 26.1746 8.76218 25.3119 15.5767 25.2794L16.7617 25.2798C21.3063 25.3029 32 25.7042 32 32.6602ZM16 0C21.9411 0 26.7733 4.80388 26.7733 10.7077C26.7733 16.6096 21.9411 21.4135 16 21.4135C10.0589 21.4135 5.22465 16.6096 5.22465 10.7077C5.22465 4.80388 10.0589 0 16 0ZM16 2.87393C11.6528 2.87393 8.11673 6.38784 8.11673 10.7077C8.11673 15.0256 11.6528 18.5395 16 18.5395C20.3472 18.5395 23.8833 15.0256 23.8833 10.7077C23.8833 6.38784 20.3472 2.87393 16 2.87393Z" fill="black"/>
</svg>
